<?xml version="1.0" standalone="no"?><!DOCTYPE svg PUBLIC "-//W3C//DTD SVG 1.1//EN" "http://www.w3.org/Graphics/SVG/1.1/DTD/svg11.dtd" ><svg xmlns="http://www.w3.org/2000/svg"><metadata></metadata><defs><font id="webfont" horiz-adv-x="2181"><font-face font-family="Nobile" font-weight="700" font-stretch="normal" units-per-em="2048" panose-1="2 0 8 3 0 0 0 0 0 0" ascent="1638" descent="-410" x-height="0" bbox="-341 -694 2036 2414" underline-thickness="40" underline-position="-312" unicode-range="U+0000-e000" /><missing-glyph horiz-adv-x="748" d="M68 0 l0 1365 l544 0 l0 -1365 l-544 0 ZM136 68 l408 0 l0 1229 l-408 0 l0 -1229 Z" /><glyph glyph-name=".null" unicode="" d="" /><glyph glyph-name="nonmarkingreturn" unicode="" d="" /><glyph glyph-name="nonmarkingreturn" unicode="" d="" /><glyph glyph-name="space" unicode=" " d="" /><glyph glyph-name="exclam" unicode="!" d="M577 1530 l-108 -1066 l-210 0 l-111 1066 l429 0 ZM240 43.5 q-53 55.5 -53 138.5 q0 83 53 138.5 q53 55.5 135.5 55.5 q82.5 0 136 -55.5 q53.5 -55.5 53.5 -138.5 q0 -83 -53.5 -138.5 q-53.5 -55.5 -136 -55.5 q-82.5 0 -135.5 55.5 Z" /><glyph glyph-name="quotedbl" unicode="&quot;" d="M78 1578 l424 0 q-1 0 -60 -387 l-60 -387 l-220 0 l-84 774 ZM600 1578 l424 0 q-1 0 -60 -387 l-60 -387 l-220 0 l-84 774 Z" /><glyph glyph-name="numbersign" unicode="#" d="M722 429 l-201 0 l-64 -429 l-228 0 l64 429 l-160 0 l0 153 l177 0 l32 247 l-209 0 l0 153 l230 0 l58 429 l226 0 l-58 -429 l205 0 l54 429 l229 0 l-57 -429 l154 0 l0 -153 l-173 0 l-33 -247 l206 0 l0 -153 l-225 0 l-62 -429 l-228 0 l63 429 ZM540 582 l198 0 l31 247 l-197 0 l-32 -247 Z" /><glyph glyph-name="dollar" unicode="$" d="M627 1599 l0 113 l110 0 l0 -119 q141 -12 256 -43 q115 -31 186 -68 l-85 -257 l-12 4 l-32 11 l-48 16 q-27 9 -60 18.5 q-33 9.5 -66.5 17.5 q-33.5 8 -70.5 15 q-37 7 -68 9 l0 -345 l156 -58 q77 -29 139.5 -69 q62.5 -40 112 -92.5 q49.5 -52.5 76.5 -121 q27 -68.5 27 -145.5 q0 -244 -134 -373 q-134 -129 -377 -146 l0 -113 l-110 0 l0 111 q-90 6 -181 25.5 q-91 19.5 -161.5 45.5 q-70.5 26 -100.5 39 l-53 23 l-1 1 l65 265 q0 -3 75.5 -32.5 q75.5 -29.5 183 -60 q107.5 -30.5 173.5 -30.5 l0 442 l-281 117 q-266 110 -266 369 q0 95 28.5 169.5 q28.5 74.5 78 123 q49.5 48.5 120 80 q70.5 31.5 149 45 q78.5 13.5 171.5 13.5 ZM627 1320 q-40 -1 -70 -5 q-30 -4 -58.5 -14 q-28.5 -10 -47 -26 q-18.5 -16 -29 -42 q-10.5 -26 -10.5 -62 q0 -17 4 -30 q4 -13 16 -30 q12 -17 38 -33.5 q26 -16.5 67 -31.5 l90 -34 l0 308 ZM737 251 q77 17 125 63.5 q48 46.5 48 122.5 q0 64 -31 109 q-31 45 -109 77 l-33 14 l0 -386 Z" /><glyph glyph-name="percent" unicode="%" d="M711 1150 q0 66 -11.5 112 q-11.5 46 -33.5 71 q-22 25 -49.5 35.5 q-27.5 10.5 -65.5 10.5 q-76 0 -116 -52.5 q-40 -52.5 -40 -176.5 q0 -69 11.5 -116 q11.5 -47 34 -72 q22.5 -25 48.5 -35 q26 -10 62 -10 q77 0 118.5 53.5 q41.5 53.5 41.5 179.5 ZM164 1130 q0 81 13 147 q13 66 34.5 111.5 q21.5 45.5 52.5 80.5 q31 35 63.5 55.5 q32.5 20.5 71.5 33 q39 12.5 73 17 q34 4.5 71 4.5 q94 0 167.5 -26.5 q73.5 -26.5 118 -68.5 q44.5 -42 74 -99.5 q29.5 -57.5 40.5 -114 q11 -56.5 11 -118.5 q0 -61 -10.5 -118.5 q-10.5 -57.5 -39 -117.5 q-28.5 -60 -72 -104.5 q-43.5 -44.5 -116.5 -72.5 q-73 -28 -165 -28 q-65 0 -120 15 q-55 15 -93.5 40.5 q-38.5 25.5 -69.5 60.5 q-31 35 -50 72.5 q-19 37.5 -31.5 79.5 q-12.5 42 -17.5 79 q-5 37 -5 72 ZM1769 439 q0 66 -11 112 q-11 46 -33 71 q-22 25 -50 35.5 q-28 10.5 -66 10.5 q-75 0 -115.5 -52.5 q-40.5 -52.5 -40.5 -176.5 q0 -69 12 -116 q12 -47 34 -72 q22 -25 48.5 -35 q26.5 -10 61.5 -10 q77 0 118.5 53.5 q41.5 53.5 41.5 179.5 ZM560 -29 l767 1703 l227 -82 l-775 -1699 l-219 78 ZM1222 419 q0 81 13 147 q13 66 34.5 111.5 q21.5 45.5 52.5 80.5 q31 35 63.5 55.5 q32.5 20.5 71.5 33 q39 12.5 73 17 q34 4.5 71 4.5 q94 0 167.5 -26.5 q73.5 -26.5 118.5 -68.5 q45 -42 74 -99.5 q29 -57.5 40 -114 q11 -56.5 11 -118.5 q0 -61 -10.5 -118.5 q-10.5 -57.5 -39 -117.5 q-28.5 -60 -72 -104.5 q-43.5 -44.5 -116 -72.5 q-72.5 -28 -165.5 -28 q-65 0 -119.5 15 q-54.5 15 -93.5 40.5 q-39 25.5 -70 60.5 q-31 35 -50 72.5 q-19 37.5 -31.5 79.5 q-12.5 42 -17.5 79 q-5 37 -5 72 Z" /><glyph glyph-name="ampersand" unicode="&amp;" d="M991 1235 q0 77 -50 114.5 q-50 37.5 -136 37.5 q-187 0 -187 -145 q0 -21 5 -41.5 q5 -20.5 13.5 -38 q8.5 -17.5 20 -34 q11.5 -16.5 23.5 -30.5 l25 -25 q12 -12 23 -21 l20 -16 q9 -6 14 -10 l5 -3 q38 12 66 23 q28 11 60 29.5 q32 18.5 52 39.5 q20 21 33 52 q13 31 13 68 ZM823 -40 q-112 0 -208 16.5 q-96 16.5 -179 53 q-83 36.5 -141.5 91.5 q-58.5 55 -91.5 135 q-33 80 -33 179 q0 77 20 142 q20 65 52 111 q32 46 81.5 86.5 q49.5 40.5 97 67.5 q47.5 27 111.5 55 q-9 7 -23 19.5 q-14 12.5 -51 52.5 q-37 40 -65 81 q-28 41 -51 100.5 q-23 59.5 -23 114.5 q0 105 62.5 185 q62.5 80 168 121 q105.5 41 237.5 41 q137 0 242.5 -41 q105.5 -41 164.5 -118.5 q59 -77.5 59 -179.5 q0 -97 -29 -183 q-29 -86 -94.5 -157.5 q-65.5 -71.5 -160.5 -106.5 l322 -277 l0 352 l287 -7 q0 -130 -13 -264.5 q-13 -134.5 -27 -203.5 l-13 -69 l266 -227 l-148 -184 l-239 202 l-20 -24 q-97 -98 -299 -140 q-118 -24 -262 -24 ZM483 459 q0 -112 81 -172 q81 -60 259 -60 q70 0 133.5 9.5 q63.5 9.5 104.5 23 q41 13.5 71.5 28 q30.5 14.5 44 23.5 q13.5 9 13.5 11 l-447 386 q-56 -14 -99.5 -33 q-43.5 -19 -81.5 -48 q-38 -29 -58.5 -71.5 q-20.5 -42.5 -20.5 -96.5 Z" /><glyph glyph-name="quotesingle" unicode="&#39;" d="M78 1578 l424 0 q-1 0 -60 -387 l-60 -387 l-220 0 l-84 774 Z" /><glyph glyph-name="parenleft" unicode="(" d="M129 680 q0 164 34.5 317 q34.5 153 96.5 279 q62 126 144 227.5 q82 101.5 180 175.5 l159 -211 q-132 -125 -213.5 -332.5 q-81.5 -207.5 -81.5 -455.5 q0 -246 82.5 -446.5 q82.5 -200.5 216.5 -327.5 l-159 -211 q-99 74 -180.5 173.5 q-81.5 99.5 -145 222.5 q-63.5 123 -98.5 274.5 q-35 151.5 -35 314.5 Z" /><glyph glyph-name="parenright" unicode=")" d="M688 694 q0 -164 -34.5 -317 q-34.5 -153 -96.5 -279 q-62 -126 -144 -227.5 q-82 -101.5 -180 -175.5 l-159 211 q132 125 213.5 332.5 q81.5 207.5 81.5 455.5 q0 246 -82.5 446.5 q-82.5 200.5 -216.5 327.5 l159 211 q99 -74 180.5 -173.5 q81.5 -99.5 145 -222.5 q63.5 -123 98.5 -274.5 q35 -151.5 35 -314.5 Z" /><glyph glyph-name="asterisk" unicode="*" d="M507 1416 l129 224 l195 -116 l-136 -236 l252 0 l0 -194 l-249 0 l135 -230 l-198 -118 l-125 220 l-126 -218 l-196 116 l135 230 l-268 0 l0 194 l271 0 l-137 240 l194 110 l124 -222 Z" /><glyph glyph-name="plus" unicode="+" d="M959 450 l-279 0 l0 -353 l-288 0 l0 353 l-277 0 l0 269 l277 0 l0 350 l288 0 l0 -350 l279 0 l0 -269 Z" /><glyph glyph-name="comma" unicode="," d="M162 0 l0 415 l418 0 l0 -362 q0 -67 -20.5 -121.5 q-20.5 -54.5 -51.5 -90 q-31 -35.5 -81 -65.5 q-50 -30 -95.5 -47.5 q-45.5 -17.5 -106.5 -35.5 l-62 114 q95 34 136 76 q41 42 41 117 l-178 0 Z" /><glyph glyph-name="hyphen" unicode="-" d="M950 574 l-794 0 l0 262 l794 0 l0 -262 Z" /><glyph glyph-name="period" unicode="." d="M153.5 55.5 q-55.5 55.5 -55.5 138.5 q0 83 55.5 138.5 q55.5 55.5 137.5 55.5 q82 0 139 -55.5 q57 -55.5 57 -138.5 q0 -83 -57 -138.5 q-57 -55.5 -139 -55.5 q-82 0 -137.5 55.5 Z" /><glyph glyph-name="slash" unicode="/" d="M85 -60 l571 1727 l281 -89 l-576 -1725 l-276 87 Z" /><glyph glyph-name="zero" unicode="0" d="M725 233 q59 0 104 18.5 q45 18.5 74.5 51 q29.5 32.5 48 80 q18.5 47.5 26 100.5 q7.5 53 7.5 119 q0 75 -13.5 135 q-13.5 60 -43 108 q-29.5 48 -81 74.5 q-51.5 26.5 -122.5 26.5 q-57 0 -101.5 -19.5 q-44.5 -19.5 -73 -52 q-28.5 -32.5 -47 -78.5 q-18.5 -46 -26 -96 q-7.5 -50 -6.5 -108 q1 -83 13.5 -146 q12.5 -63 41 -112.5 q28.5 -49.5 79 -75 q50.5 -25.5 120.5 -25.5 ZM725 1206 q190 0 323.5 -75.5 q133.5 -75.5 199 -213 q65.5 -137.5 65.5 -327.5 q0 -189 -66.5 -327 q-66.5 -138 -199.5 -214 q-133 -76 -321.5 -76 q-188.5 0 -321 76.5 q-132.5 76.5 -198 214 q-65.5 137.5 -65.5 326.5 q0 290 150 453 q150 163 434 163 Z" /><glyph glyph-name="one" unicode="1" d="M350 0 l0 892 l-156 -67 l-94 238 l267 108 l331 -2 l0 -1169 l-348 0 Z" /><glyph glyph-name="two" unicode="2" d="M724 786 q0 73 -36.5 108.5 q-36.5 35.5 -117.5 35.5 q-44 0 -101 -14 q-57 -14 -111 -36 l-80 -33 q-26 -11 -46 -21 l-1 -1 l-91 239 l2 1 q25 13 56.5 26.5 q31.5 13.5 99.5 40 q68 26.5 146.5 43 q78.5 16.5 147.5 16.5 q69 0 133 -11 q64 -11 125.5 -37.5 q61.5 -26.5 106.5 -66 q45 -39.5 72.5 -102 q27.5 -62.5 27.5 -140.5 q0 -118 -57.5 -214.5 q-57.5 -96.5 -201.5 -223.5 l-144 -128 l372 0 l0 -268 l-858 0 l0 217 l325 275 q4 3 30.5 25 q26.5 22 35.5 30 l33 29 q25 22 35 34 l29 32 q20 21 29 36 q9 15 19.5 34.5 q10.5 19.5 15 37.5 q4.5 18 4.5 36 Z" /><glyph glyph-name="three" unicode="3" d="M684 829 q0 56 -45.5 83.5 q-45.5 27.5 -119.5 27.5 q-26 0 -55 -4 q-29 -4 -56 -10 q-27 -6 -53.5 -13.5 q-26.5 -7.5 -48 -15 q-21.5 -7.5 -38 -14 q-16.5 -6.5 -25.5 -9.5 l-9 -4 l-114 229 l18 10 q19 10 54 25.5 q35 15.5 78.5 30.5 q43.5 15 103.5 26 q60 11 120 11 q91 0 164.5 -12 q73.5 -12 136.5 -40 q63 -28 105.5 -71.5 q42.5 -43.5 67 -108 q24.5 -64.5 26.5 -147.5 q2 -94 -53 -173.5 q-55 -79.5 -148 -102.5 q102 -25 169.5 -113.5 q67.5 -88.5 67.5 -194.5 q0 -106 -39 -187 q-39 -81 -109.5 -130 q-70.5 -49 -163.5 -73.5 q-93 -24.5 -206 -24.5 q-64 0 -126 7 q-62 7 -105 17 q-43 10 -76.5 20 q-33.5 10 -49.5 17 l-17 7 l83 252 l1 0 q22 -9 52 -19.5 q30 -10.5 101 -26.5 q71 -16 127 -16 q101 0 152.5 35 q51.5 35 51.5 119 q0 60 -43.5 104.5 q-43.5 44.5 -110 65 q-66.5 20.5 -142.5 18.5 l0 246 q55 0 102 8.5 q47 8.5 86.5 26.5 q39.5 18 62.5 50 q23 32 23 74 Z" /><glyph glyph-name="four" unicode="4" d="M733 1217 l252 -66 l0 -834 l180 0 l0 -258 l-180 0 l0 -276 l-288 1 l0 275 l-572 0 l-41 201 l649 957 ZM417 315 l280 0 l0 418 l-280 -418 Z" /><glyph glyph-name="five" unicode="5" d="M171 161 l21 -8 q14 -5 55 -18 q41 -13 81 -22.5 q40 -9.5 94.5 -18 q54.5 -8.5 100.5 -8.5 q108 -1 168 47.5 q60 48.5 59 146.5 q-1 103 -51.5 165 q-50.5 62 -148.5 61 q-101 0 -250 -81 l-140 124 l0 620 l805 0 l0 -245 l-524 0 l0 -225 q0 2 16.5 11.5 q16.5 9.5 52 20 q35.5 10.5 74.5 10.5 q214 0 339.5 -123.5 q125.5 -123.5 125.5 -333.5 q0 -144 -67.5 -251.5 q-67.5 -107.5 -187 -163 q-119.5 -55.5 -273.5 -51.5 q-97 3 -201.5 29 q-104.5 26 -190.5 63 l42 251 Z" /><glyph glyph-name="six" unicode="6" d="M463 457 q2 -69 14.5 -122 q12.5 -53 38 -93 q25.5 -40 68.5 -61 q43 -21 102 -21 q44 0 77.5 14.5 q33.5 14.5 54.5 39 q21 24.5 34 60.5 q13 36 18 74 q5 38 5 85 q0 92 -46 140 q-46 48 -135 48 q-131 0 -231 -95 l0 -69 ZM1189 386 q0 -107 -34.5 -196.5 q-34.5 -89.5 -98 -153.5 q-63.5 -64 -158 -100 q-94.5 -36 -210.5 -36 q-128 0 -233.5 44 q-105.5 44 -174 119.5 q-68.5 75.5 -106 176.5 q-37.5 101 -37.5 216 q0 150 40.5 280 q40.5 130 110.5 228 q70 98 168.5 176.5 q98.5 78.5 211.5 131 q113 52.5 243 86.5 l80 -264 q-295 -60 -426 -234 q72 14 136 14 q109 0 202 -40 q93 -40 155 -107.5 q62 -67.5 96.5 -156 q34.5 -88.5 34.5 -184.5 Z" /><glyph glyph-name="seven" unicode="7" d="M1008 1169 l82 -180 l-588 -1225 l-297 132 l488 1015 l-563 0 l0 258 l878 0 Z" /><glyph glyph-name="eight" unicode="8" d="M463 1298 q88 25 190.5 25 q102.5 0 190 -25 q87.5 -25 154 -72.5 q66.5 -47.5 104.5 -122 q38 -74.5 38 -167.5 q0 -123 -74 -212 q-74 -89 -189 -112 q56 -8 108 -36.5 q52 -28.5 92.5 -71.5 q40.5 -43 65 -103 q24.5 -60 24.5 -126 q0 -84 -28 -152 q-28 -68 -76.5 -114 q-48.5 -46 -115 -77 q-66.5 -31 -140 -45 q-73.5 -14 -154.5 -14 q-81 0 -154.5 14 q-73.5 14 -139.5 45 q-66 31 -114.5 77 q-48.5 46 -77 114 q-28.5 68 -28.5 152 q0 66 24.5 126 q24.5 60 65.5 103 q41 43 93 71.5 q52 28.5 107 36.5 q-114 23 -188.5 112 q-74.5 89 -74.5 212 q0 93 38 167.5 q38 74.5 104.5 122 q66.5 47.5 154.5 72.5 ZM509 173 q47 -36 144.5 -36 q97.5 0 144.5 36 q47 36 47 124 q0 97 -49 155 q-49 58 -143 58 q-94 0 -143 -58 q-49 -58 -49 -155 q1 -88 48 -124 ZM522.5 794 q42.5 -40 130.5 -40 q88 0 131 40 q43 40 43 128 q0 147 -174 147 q-174 0 -174 -147 q1 -88 43.5 -128 Z" /><glyph glyph-name="nine" unicode="9" d="M431 684 q-1 -85 46 -138 q47 -53 124 -53 q35 0 93.5 4.5 q58.5 4.5 99.5 8.5 l40 4 l15 138 q-1 64 -13.5 113.5 q-12.5 49.5 -38.5 87.5 q-26 38 -69 58.5 q-43 20.5 -102 20.5 q-59 0 -98 -15.5 q-39 -15.5 -59.5 -49 q-20.5 -33.5 -28.5 -75 q-8 -41.5 -9 -104.5 ZM605 245 q-220 0 -354.5 120.5 q-134.5 120.5 -134.5 332.5 q0 143 60.5 254.5 q60.5 111.5 171.5 173.5 q111 62 256 62 q269 0 417.5 -146.5 q148.5 -146.5 148.5 -408.5 q0 -153 -49 -290 q-49 -137 -128 -237 q-79 -100 -182 -179.5 q-103 -79.5 -208 -126.5 q-105 -47 -209 -70 l-78 266 q151 31 260.5 102.5 q109.5 71.5 170.5 164.5 q-67 -18 -142 -18 Z" /><glyph glyph-name="colon" unicode=":" d="M191 736 l0 432 l418 0 l0 -432 l-418 0 ZM191 0 l0 432 l418 0 l0 -432 l-418 0 Z" /><glyph glyph-name="semicolon" unicode=";" d="M193 0 l0 415 l418 0 l0 -362 q0 -67 -20.5 -121.5 q-20.5 -54.5 -51.5 -90 q-31 -35.5 -81 -65.5 q-50 -30 -95.5 -47.5 q-45.5 -17.5 -106.5 -35.5 l-62 114 q95 34 136 76 q41 42 41 117 l-178 0 ZM191 736 l0 432 l418 0 l0 -432 l-418 0 Z" /><glyph glyph-name="less" unicode="&lt;" d="M132 476 l0 236 l840 513 l1 -301 l-546 -330 l546 -330 l-1 -301 l-840 513 Z" /><glyph glyph-name="equal" unicode="=" d="M1073 644 l-996 0 l0 233 l996 0 l0 -233 ZM1073 269 l-996 0 l0 233 l996 0 l0 -233 Z" /><glyph glyph-name="greater" unicode="&gt;" d="M1032 476 l-840 -513 l-1 301 l538 330 l-538 330 l1 301 l840 -513 l0 -236 Z" /><glyph glyph-name="question" unicode="?" d="M682 1132 q0 40 -13.5 68 q-13.5 28 -34 44 q-20.5 16 -55.5 24.5 q-35 8.5 -67 11 q-32 2.5 -80 2.5 q-54 0 -138 -18 q-84 -18 -141.5 -35.5 q-57.5 -17.5 -57.5 -18.5 l-81 253 q55 28 94 41 q153 51 354 51 q118 0 215.5 -21 q97.5 -21 176 -65.5 q78.5 -44.5 122.5 -121.5 q44 -77 44 -182 q0 -26 -2 -50 q-2 -24 -12.5 -65.5 q-10.5 -41.5 -29 -77.5 q-18.5 -36 -54.5 -80.5 q-36 -44.5 -84.5 -81.5 q-48.5 -37 -125 -73 q-76.5 -36 -170.5 -63 l0 -254 l-321 0 l0 409 q28 11 72 25 l78 26 q34 11 76.5 27.5 q42.5 16.5 74 31.5 q31.5 15 63 36 q31.5 21 52 43.5 q20.5 22.5 33 51.5 q12.5 29 12.5 62 ZM262.5 -13.5 q-53.5 55.5 -53.5 138.5 q0 83 53.5 138.5 q53.5 55.5 135.5 55.5 q82 0 135.5 -55.5 q53.5 -55.5 53.5 -138.5 q0 -83 -53.5 -138.5 q-53.5 -55.5 -135.5 -55.5 q-82 0 -135.5 55.5 Z" /><glyph glyph-name="at" unicode="@" d="M1053 987 q-128 0 -202.5 -85 q-74.5 -85 -74.5 -267 q0 -73 37 -127.5 q37 -54.5 98 -54.5 q45 0 84 17.5 q39 17.5 67.5 44.5 q28.5 27 53 70.5 q24.5 43.5 41 85 q16.5 41.5 31 98 q14.5 56.5 23 99.5 q8.5 43 18.5 100 q1 1 -26 5.5 q-27 4.5 -71 9 q-44 4.5 -79 4.5 ZM970 -133 q-188 -1 -345.5 54.5 q-157.5 55.5 -267 157 q-109.5 101.5 -170 246 q-60.5 144.5 -60.5 317.5 q0 139 36.5 268.5 q36.5 129.5 113.5 243 q77 113.5 185.5 197.5 q108.5 84 261 132.5 q152.5 48.5 332.5 48.5 q160 0 305.5 -49.5 q145.5 -49.5 258 -140.5 q112.5 -91 179.5 -232 q67 -141 67 -310 q0 -112 -32.5 -211.5 q-32.5 -99.5 -92 -174 q-59.5 -74.5 -119 -109 q-59.5 -34.5 -236.5 -34.5 q-84 0 -127.5 54.5 q-43.5 54.5 -43.5 149.5 q0 25 3 52 q-35 -99 -74 -155.5 q-39 -56.5 -97 -85.5 q-58 -29 -144 -29 q-48 0 -93.5 10.5 q-45.5 10.5 -94 38.5 q-48.5 28 -84.5 72 q-36 44 -68 114.5 q-32 70.5 -32 166.5 q0 124 49.5 220 q49.5 96 118.5 158 q69 62 158.5 95 q89.5 33 190.5 33 q72 0 139.5 -13 q67.5 -13 123 -37.5 q55.5 -24.5 89 -65 q33.5 -40.5 33.5 -91.5 q0 -16 -2 -27 l-81 -465 q131 22 189.5 95.5 q58.5 73.5 58.5 196.5 q0 265 -148 399.5 q-148 134.5 -419 134.5 q-282 0 -452.5 -181.5 q-170.5 -181.5 -170.5 -468.5 q0 -271 159.5 -409 q159.5 -138 443.5 -138 q126 0 264 55 l54 -208 q-63 -37 -158.5 -56 q-95.5 -19 -200.5 -19 Z" /><glyph glyph-name="A" unicode="a" d="M787 1137 l-202 -617 l392 0 l-190 617 ZM578 1578 l406 0 l520 -1578 l-369 0 l-111 350 l-486 0 l-111 -350 l-369 0 l520 1578 Z" /><glyph glyph-name="B" unicode="b" d="M557 1323 l0 -395 l139 0 q330 0 330 207 q0 91 -45 130 q-66 58 -283 58 l-141 0 ZM676 254 q166 0 203 10 q37 10 65 20 q28 10 44 26 q16 16 30 38 q27 40 27 117 q0 77 -23 124.5 q-23 47.5 -72 72.5 q-83 41 -256 41 l-137 0 l0 -449 l119 0 ZM606 1578 q272 0 405 -36.5 q133 -36.5 197 -81.5 q144 -100 144 -300 q0 -134 -97 -223.5 q-97 -89.5 -245 -104.5 q291 -44 368 -207 q31 -66 31 -163.5 q0 -97.5 -32 -178.5 q-32 -81 -89 -134 q-57 -53 -144 -87 q-157 -62 -418 -62 l-538 0 l0 1578 l418 0 Z" /><glyph glyph-name="C" unicode="c" d="M443 782 q0 -543 360 -543 q181 0 340 109 l100 -260 q-86 -72 -301 -104 q-83 -13 -173 -13 q-324 0 -508.5 213.5 q-184.5 213.5 -184.5 607 q0 393.5 181 602 q181 208.5 512 208.5 q220 0 399 -74 q39 -17 57 -29 l18 -12 l-100 -260 l-18 13 l-23 15 q-126 81 -306.5 81 q-180.5 0 -266.5 -132 q-86 -132 -86 -422 Z" /><glyph glyph-name="D" unicode="d" d="M1114 650 q4 58 4 135 q0 77 -4 134.5 q-4 57.5 -16.5 117 q-12.5 59.5 -33.5 101.5 q-52 98 -151.5 143 q-99.5 45 -271.5 45 l-83 0 l0 -1072 l83 0 q259 0 358 100.5 q99 100.5 115 295.5 ZM1488 782 q0 -379 -197.5 -580.5 q-197.5 -201.5 -610.5 -201.5 l-491 0 l0 1578 l491 0 q808 0 808 -796 Z" /><glyph glyph-name="E" unicode="e" d="M1269 0 l-1080 0 l0 1578 l1070 0 l0 -269 l-702 0 l0 -380 l612 0 l0 -226 l-612 0 l0 -437 l712 0 l0 -266 Z" /><glyph glyph-name="F" unicode="f" d="M557 702 l0 -702 l-368 0 l0 1578 l1080 0 l0 -269 l-712 0 l0 -381 l626 0 l0 -226 l-626 0 Z" /><glyph glyph-name="G" unicode="g" d="M1122 304 l0 351 l-358 0 l0 224 l681 0 l0 -879 l-237 0 l-48 126 q-40 -76 -140 -119.5 q-100 -43.5 -228 -43.5 q-313 0 -493 206 q-180 206 -180 601 q0 388 200 608.5 q200 220.5 570 220.5 q95 0 178.5 -12.5 q83.5 -12.5 135.5 -30.5 q52 -18 89.5 -36 q37.5 -18 53.5 -30 l17 -11 l-107 -246 q-22 11 -59.5 28 q-37.5 17 -133 45.5 q-95.5 28.5 -166.5 28.5 q-195 0 -302 -144 q-107 -144 -107 -423 q0 -154 35 -270.5 q35 -116.5 111.5 -187 q76.5 -70.5 187.5 -70.5 q180 0 300 64 Z" /><glyph glyph-name="H" unicode="h" d="M1080 0 l0 704 l-558 0 l0 -704 l-369 0 l0 1578 l369 0 l0 -648 l558 0 l0 648 l369 0 l0 -1578 l-369 0 Z" /><glyph glyph-name="I" unicode="i" d="M77 170 l170 0 l0 1237 l-170 0 l0 171 l710 0 l0 -171 l-171 0 l0 -1237 l171 0 l0 -170 l-710 0 l0 170 Z" /><glyph glyph-name="J" unicode="j" d="M31 154 q122 14 188.5 48.5 q66.5 34.5 97.5 106 q31 71.5 31 197.5 l0 1072 l369 0 l0 -1039 q8 -325 -134.5 -471.5 q-142.5 -146.5 -457.5 -153.5 l-94 240 Z" /><glyph glyph-name="K" unicode="k" d="M560 676 l0 -676 l-369 0 l0 1578 l369 0 l0 -677 l82 0 l448 677 l376 0 l-533 -781 l588 -797 l-385 0 l-502 676 l-74 0 Z" /><glyph glyph-name="L" unicode="l" d="M1190 0 l-1051 0 l0 1578 l368 0 l0 -1325 l683 0 l0 -253 Z" /><glyph glyph-name="M" unicode="m" d="M835 0 l-358 1085 l0 -1085 l-306 0 l0 1578 l435 0 l392 -1170 l406 1170 l436 0 l0 -1578 l-306 0 l0 1085 l-355 -1085 l-344 0 Z" /><glyph glyph-name="N" unicode="n" d="M1481 0 l-381 0 l-622 1074 l0 -1074 l-329 0 l0 1578 l394 0 l611 -1059 l0 1059 l327 0 l0 -1578 Z" /><glyph glyph-name="O" unicode="o" d="M279.5 1390.5 q176.5 214.5 533.5 214.5 q357 0 533.5 -214.5 q176.5 -214.5 176.5 -601.5 q0 -190 -42.5 -339.5 q-42.5 -149.5 -128.5 -256.5 q-86 -107 -222 -164 q-136 -57 -317 -57 q-181 0 -317 57 q-136 57 -222 164 q-86 107 -128.5 256.5 q-42.5 149.5 -42.5 339.5 q0 387 176.5 601.5 ZM952 1310.5 q-60 28.5 -139 28.5 q-79 0 -139 -28.5 q-60 -28.5 -98 -76.5 q-38 -48 -61.5 -119.5 q-23.5 -71.5 -33 -150 q-9.5 -78.5 -9.5 -175.5 q0 -97 9.5 -175.5 q9.5 -78.5 33 -150 q23.5 -71.5 61.5 -120 q38 -48.5 98 -77 q60 -28.5 139 -28.5 q79 0 139 28.5 q60 28.5 98 77 q38 48.5 61.5 120 q23.5 71.5 33 150 q9.5 78.5 9.5 175.5 q0 97 -9.5 175.5 q-9.5 78.5 -33 150 q-23.5 71.5 -61.5 119.5 q-38 48 -98 76.5 Z" /><glyph glyph-name="P" unicode="p" d="M568 772 q73 0 131.5 8 q58.5 8 110.5 27.5 q52 19.5 87 50 q35 30.5 55 78.5 q20 48 20 112 q0 87 -25 147.5 q-25 60.5 -75 95 q-50 34.5 -116 49 q-66 14.5 -158 14.5 l-90 0 l0 -582 l60 0 ZM1340 1052 q0 -118 -36.5 -206 q-36.5 -88 -101 -143.5 q-64.5 -55.5 -163.5 -89.5 q-99 -34 -211 -47.5 q-112 -13.5 -258 -13.5 l-62 0 l0 -552 l-369 0 l0 1578 l459 0 q139 0 247 -14.5 q108 -14.5 203.5 -50.5 q95.5 -36 158 -94.5 q62.5 -58.5 98 -151 q35.5 -92.5 35.5 -215.5 Z" /><glyph glyph-name="Q" unicode="q" d="M951.5 1310.5 q-59.5 28.5 -138.5 28.5 q-79 0 -138.5 -28.5 q-59.5 -28.5 -97.5 -76.5 q-38 -48 -62 -119.5 q-24 -71.5 -33.5 -150 q-9.5 -78.5 -9.5 -175.5 q0 -97 9.5 -175.5 q9.5 -78.5 33.5 -150 q24 -71.5 61.5 -120 q37.5 -48.5 97.5 -77 q60 -28.5 139 -28.5 q79 0 139 28.5 q60 28.5 97.5 77 q37.5 48.5 61.5 120 q24 71.5 33.5 150 q9.5 78.5 9.5 175.5 q0 97 -9.5 175.5 q-9.5 78.5 -33.5 150 q-24 71.5 -62 119.5 q-38 48 -97.5 76.5 ZM279.5 1390.5 q176.5 214.5 533.5 214.5 q357 0 533.5 -214.5 q176.5 -214.5 176.5 -601.5 q0 -219 -55.5 -383 q-55.5 -164 -173 -272 q-117.5 -108 -293.5 -144 l288 -224 l-174 -186 l-456 404 q-141 22 -247.5 88 q-106.5 66 -174 170.5 q-67.5 104.5 -101 241 q-33.5 136.5 -33.5 305.5 q0 387 176.5 601.5 Z" /><glyph glyph-name="R" unicode="r" d="M885 786 q109 -11 190.5 -35 q81.5 -24 149.5 -69 q68 -45 103.5 -120.5 q35.5 -75.5 35.5 -179.5 l0 -382 l-365 0 l0 407 q0 80 -25.5 134 q-25.5 54 -77 83 q-51.5 29 -115.5 40.5 q-64 11.5 -155 11.5 l-118 0 l0 -676 l-369 0 l0 1578 l419 0 q187 0 323.5 -17 q136.5 -17 227 -48.5 q90.5 -31.5 144.5 -82.5 q54 -51 76.5 -112.5 q22.5 -61.5 22.5 -144.5 q0 -82 -22.5 -145.5 q-22.5 -63.5 -63 -106.5 q-40.5 -43 -100 -72 q-59.5 -29 -128 -44 q-68.5 -15 -153.5 -19 ZM551 899 q91 0 155.5 5.5 q64.5 5.5 119.5 20.5 q55 15 88 41 q33 26 51.5 67 q18.5 41 18.5 97 q0 54 -14 92 q-14 38 -42 64 q-28 26 -76.5 41 q-48.5 15 -110 21 q-61.5 6 -148.5 6 l-85 0 l0 -455 l43 0 Z" /><glyph glyph-name="S" unicode="s" d="M1265 466 q0 -507 -584 -507 q-87 0 -176 16 q-89 16 -147.5 35 q-58.5 19 -120 47.5 q-61.5 28.5 -79.5 38.5 l-39 24 l-2 1 l81 277 q11 -7 30.5 -18 q19.5 -11 76.5 -39 q57 -28 110 -49 q53 -21 120 -38.5 q67 -17.5 117 -16.5 q47 1 74.5 2 q27.5 1 63.5 6 q36 5 56.5 15 q20.5 10 40 26.5 q19.5 16.5 28 42.5 q8.5 26 8.5 61 q0 64 -30.5 108 q-30.5 44 -109.5 76 l-424 174 q-131 54 -198.5 162 q-67.5 108 -67.5 249 q0 90 33.5 165.5 q33.5 75.5 90 127 q56.5 51.5 132 88 q75.5 36.5 158 53 q82.5 16.5 168.5 16.5 q76 0 159.5 -14.5 q83.5 -14.5 148.5 -34.5 q65 -20 119.5 -40 q54.5 -20 84.5 -34 l29 -14 l-94 -278 q-8 6 -22 15 q-14 9 -58.5 32.5 q-44.5 23.5 -90 41.5 q-45.5 18 -111 33 q-65.5 15 -127.5 15 q-40 0 -70.5 -1.5 q-30.5 -1.5 -65.5 -6.5 q-35 -5 -60 -15 q-25 -10 -46.5 -25.5 q-21.5 -15.5 -32 -39.5 q-10.5 -24 -10.5 -55 q0 -24 6 -42.5 q6 -18.5 35 -44 q29 -25.5 81 -46.5 l356 -141 q148 -59 253.5 -179 q105.5 -120 105.5 -269 Z" /><glyph glyph-name="T" unicode="t" d="M1168 1324 l-402 0 l0 -1324 l-369 0 l0 1324 l-409 0 l0 254 l1180 0 l0 -254 Z" /><glyph glyph-name="U" unicode="u" d="M509 719 q3 -183 14 -235.5 q11 -52.5 22 -88 q11 -35.5 26.5 -58.5 q15.5 -23 37.5 -45 q22 -22 51 -35 q61 -28 130 -28 q69 0 110 8.5 q41 8.5 71 27.5 q30 19 52.5 42 q22.5 23 37 59 q14.5 36 24 70.5 q9.5 34.5 13.5 84.5 q8 83 8 198 l0 859 l369 0 l0 -855 q0 -373 -159.5 -566.5 q-159.5 -193.5 -507.5 -193.5 q-353 0 -514 200 q-154 192 -154 560 l0 855 l369 0 l0 -859 Z" /><glyph glyph-name="V" unicode="v" d="M336 1578 l334 -1075 l322 1075 l348 0 l-492 -1578 l-366 0 l-490 1578 l344 0 Z" /><glyph glyph-name="W" unicode="w" d="M803 1565 l393 0 l207 -1117 l217 1130 l356 0 l-338 -1578 l-405 0 l-234 1205 l-233 -1205 l-406 0 l-338 1578 l357 0 l217 -1130 l207 1117 Z" /><glyph glyph-name="X" unicode="x" d="M684 1067 l306 511 l383 0 l-483 -781 l483 -797 l-391 0 l-298 494 l-298 -494 l-391 0 l483 797 l-483 781 l383 0 l306 -511 Z" /><glyph glyph-name="Y" unicode="y" d="M616 905 l310 673 l374 0 l-510 -1060 l0 -518 l-348 0 l0 518 l-504 1060 l368 0 l310 -673 Z" /><glyph glyph-name="Z" unicode="z" d="M1161 1578 l0 -224 l-695 -1058 l697 0 l0 -296 l-1110 0 l0 251 l702 1073 l-702 0 l0 254 l1108 0 Z" /><glyph glyph-name="bracketleft" unicode="[" d="M229 1578 l750 0 l0 -262 l-418 0 l0 -1054 l418 0 l0 -262 l-750 0 l0 1578 Z" /><glyph glyph-name="backslash" unicode="\" d="M487 1687 l571 -1723 l-320 -111 l-572 1725 l321 109 Z" /><glyph glyph-name="bracketright" unicode="]" d="M229 1578 l750 0 l0 -1578 l-750 0 l0 262 l416 0 l0 1054 l-416 0 l0 262 Z" /><glyph glyph-name="asciicircum" unicode="^" d="M487 1182 l254 0 l258 -619 l-274 0 l-112 384 l-112 -384 l-272 0 l258 619 Z" /><glyph glyph-name="underscore" unicode="_" d="M1063 -98 l-996 0 l0 262 l996 0 l0 -262 Z" /><glyph glyph-name="grave" unicode="`" d="M529 308 l-358 542 l312 145 l203 -613 l-157 -74 Z" /><glyph glyph-name="a" unicode="a" d="M683 547 q-129 0 -184 -36 q-55 -36 -55 -121 q0 -85 39 -129 q39 -44 109 -44 q110 0 187 93 l0 229 q2 2 -38.5 5 q-40.5 3 -57.5 3 ZM624 954 q-201 0 -373 -81 l-83 209 q184 114 468 114 q326 0 430 -208 q61 -120 61 -314 l0 -674 l-271 0 l-48 150 q-51 -88 -123 -132 q-72 -44 -184 -44 q-193 0 -300 100.5 q-107 100.5 -107 287 q0 186.5 140 277 q140 90.5 392 90.5 q88 0 153 -12 q0 116 -10 142 q-21 57 -54.5 76 q-33.5 19 -90.5 19 Z" /><glyph glyph-name="b" unicode="b" d="M823 -26 q-251 0 -313 192 l-76 -166 l-245 0 l0 1678 l351 47 l0 -665 q120 136 316 136 q139 0 238 -77 q200 -154 200 -533 q0 -468 -288 -580 q-80 -32 -183 -32 ZM742 200 q202 0 202 386 q0 226 -42 308 q-42 78 -129 78 q-115 0 -233 -116 l0 -560 q88 -96 202 -96 Z" /><glyph glyph-name="c" unicode="c" d="M264.5 129 q-76.5 74 -120.5 189 q-44 115 -44 253.5 q0 138.5 31 237 q31 98.5 85 168.5 q54 70 126 120 q143 99 322 99 q133 0 220.5 -25.5 q87.5 -25.5 180.5 -74.5 l-65 -225 q-27 26 -111 57.5 q-84 31.5 -165 31.5 q-149 0 -210.5 -86.5 q-61.5 -86.5 -61.5 -287.5 q0 -375 299 -375 q111 0 235 80 q13 8 13 9 l65 -225 q-61 -32 -106 -50 q-123 -50 -268 -50 q-145 0 -247 40 q-102 40 -178.5 114 Z" /><glyph glyph-name="d" unicode="d" d="M172.5 223.5 q-35.5 77.5 -50.5 164.5 q-15 87 -15 236 q0 149 52 283.5 q52 134.5 154 211.5 q102 77 241 77 q200 0 309 -150 l0 632 l351 48 l0 -1726 l-247 0 l-76 166 q-22 -75 -104 -128 q-98 -64 -212 -64 q-98 0 -179 31.5 q-81 31.5 -134.5 86 q-53.5 54.5 -89 132 ZM457 586 q0 -376 202 -376 q142 0 204 86 l0 560 q-119 106 -235 106 q-154 0 -168 -261 q-3 -44 -3 -115 Z" /><glyph glyph-name="e" unicode="e" d="M867 676 q3 284 -201 284 q-68 0 -117 -40 q-93 -77 -93 -244 l411 0 ZM1027 304 l66 -234 q-186 -95 -389 -96 q-390 0 -540 284 q-71 137 -67 308 q4 171 48 283 q44 112 121 188 q160 159 406 159 q149 0 258 -66 q223 -136 221 -464 l0 -164 l-694 0 q4 -132 77 -212 q73 -79 197 -78 q171 1 296 92 Z" /><glyph glyph-name="f" unicode="f" d="M740 1436 q-70 0 -103.5 -59.5 q-33.5 -59.5 -33.5 -215.5 l280 0 l0 -145 l-281 0 l0 -1016 l-350 0 l0 1016 l-190 0 l0 145 l190 0 q0 265 100 399.5 q100 134.5 308 134.5 q114 0 229 -29 l0 -255 q-67 25 -149 25 Z" /><glyph glyph-name="g" unicode="g" d="M412 -52.5 q-23 -23.5 -39.5 -54 q-16.5 -30.5 -16.5 -60 q0 -29.5 3.5 -48 q3.5 -18.5 17 -37.5 q13.5 -19 39.5 -29 q58 -23 162 -23 q104 0 163.5 8.5 q59.5 8.5 94 22 q34.5 13.5 54.5 36.5 q31 37 31.5 93 q0.5 56 -18.5 83 q-39 56 -247 76 l-140 14 q-8 0 -44.5 -29 q-36.5 -29 -59.5 -52.5 ZM550 605 l122 10 q54 4 100 65 q45 62 43 124 q0 164 -180 164 q-93 0 -140 -37.5 q-47 -37.5 -47 -137 q0 -99.5 66 -163.5 q16 -15 36 -25 ZM1040 968 q64 -96 64 -151 q0 -55 -10 -101 q-10 -46 -38.5 -98 q-28.5 -52 -72.5 -92 q-101 -87 -288 -105 l-303 -29 l18 -120 l268 -20 q280 -21 414 -114.5 q134 -93.5 134 -282.5 q0 -414 -640 -414 q-437 0 -496 230 q-12 47 -12 125 q0 78 54 156 q54 78 153 128 q-156 15 -176 189 q-6 84 5 114 q11 30 29 55 q39 56 143 90 l81 22 q-137 6 -197 105 q-34 55 -34 136 q0 191 126.5 298 q126.5 107 339.5 107 q213 0 306 -60 q133 58 278 58 l101 0 l0 -226 l-247 0 Z" /><glyph glyph-name="h" unicode="h" d="M539 1728 l0 -671 q6 15 37.5 43.5 q31.5 28.5 64.5 47.5 q83 48 211 48 q197 0 306 -119 q109 -119 109 -354 l0 -723 l-350 0 l0 747 q0 107 -48.5 161 q-48.5 54 -115 54 q-66.5 0 -105 -11.5 q-38.5 -11.5 -58.5 -25.5 q-20 -14 -51 -41 l0 -884 l-350 0 l0 1668 l350 60 Z" /><glyph glyph-name="i" unicode="i" d="M252.5 1468.5 q-55.5 55.5 -55.5 138.5 q0 83 55.5 138.5 q55.5 55.5 137.5 55.5 q82 0 139 -55.5 q57 -55.5 57 -138.5 q0 -83 -57 -138.5 q-57 -55.5 -139 -55.5 q-82 0 -137.5 55.5 ZM565 -3 l-350 0 l0 1160 l350 0 l0 -1160 Z" /><glyph glyph-name="j" unicode="j" d="M-9 -113 q52 29 86 55.5 q34 26.5 64 65.5 q30 39 44.5 92 q14.5 53 14.5 123 l0 937 l351 0 l0 -957 q0 -106 -36 -201 q-36 -95 -98.5 -164.5 q-62.5 -69.5 -143 -117 q-80.5 -47.5 -171.5 -68.5 l-111 235 ZM238.5 1465.5 q-53.5 55.5 -53.5 139 q0 83.5 53.5 138.5 q53.5 55 135.5 55 q82 0 135.5 -55 q53.5 -55 53.5 -138.5 q0 -83.5 -53.5 -139 q-53.5 -55.5 -135.5 -55.5 q-82 0 -135.5 55.5 Z" /><glyph glyph-name="k" unicode="k" d="M540 409 l0 -409 l-351 0 l0 1678 l351 49 l0 -991 l440 433 l381 0 l-512 -520 l522 -649 l-395 0 l-344 496 l-92 -87 Z" /><glyph glyph-name="l" unicode="l" d="M525 1726 l0 -1726 l-351 0 l0 1678 l351 48 Z" /><glyph glyph-name="m" unicode="m" d="M676 950 q-95 -44 -136 -119 l0 -831 l-351 0 l0 1160 l248 0 l78 -178 q41 109 115 159 q82 55 200 55 q112 0 189.5 -38.5 q77.5 -38.5 124.5 -135.5 q61 88 142.5 131 q81.5 43 212.5 43 q179 0 270 -115 q91 -115 91 -326 l0 -755 l-351 0 l0 782 q0 178 -119 178 q-47 0 -89 -22.5 q-42 -22.5 -97 -75.5 l0 -862 l-351 0 l0 792 q0 137 -67 161 q-19 7 -48 7 q-40 0 -62 -10 Z" /><glyph glyph-name="n" unicode="n" d="M516 1011 q90 185 305.5 185 q215.5 0 313.5 -117.5 q98 -117.5 98 -357.5 l0 -721 l-351 0 l0 747 q0 117 -35.5 164.5 q-35.5 47.5 -111 50 q-75.5 2.5 -126 -29.5 q-50.5 -32 -75.5 -76 l0 -856 l-351 0 l0 1160 l266 0 l67 -149 Z" /><glyph glyph-name="o" unicode="o" d="M474 299 q54 -91 166 -91 q112 0 166 91 q54 91 54 285 q0 194 -54 285 q-54 91 -166 91 q-112 0 -166 -91 q-54 -91 -54 -285 q0 -194 54 -285 ZM218 1034.5 q148 161.5 421 161.5 q273 0 421 -161.5 q148 -161.5 148 -452.5 q0 -289 -147 -448.5 q-147 -159.5 -421 -159.5 q-274 0 -422 159.5 q-148 159.5 -148 448.5 q0 291 148 452.5 Z" /><glyph glyph-name="p" unicode="p" d="M784 -26 q-166 0 -273 146 l0 -526 l-351 0 l0 1566 l267 0 l66 -151 q30 89 107 138 q78 49 207 49 q129 0 213.5 -43 q84.5 -43 139.5 -126 q110 -166 110 -458.5 q0 -292.5 -133.5 -443.5 q-133.5 -151 -352.5 -151 ZM906.5 390 q7.5 64 9.5 111.5 q2 47.5 2 104 q0 56.5 -2 93.5 q-2 37 -7.5 81.5 q-5.5 44.5 -17.5 74.5 q-12 30 -31 57 q-36 52 -117 52 q-128 0 -232 -107 l0 -533 q143 -116 236 -116 q78 0 115 59 q37 59 44.5 123 Z" /><glyph glyph-name="q" unicode="q" d="M405 1166 q82 30 180 30 q98 0 174 -54 q57 -36 102 -138 l49 156 l300 0 l0 -1566 l-351 0 l0 527 q-124 -146 -273 -146 q-106 0 -195 35 q-89 35 -139 97 q-149 182 -149 458 q0 488 302 601 ZM491.5 845 q-21.5 -54 -30.5 -114 q-9 -60 -9 -130.5 q0 -70.5 2 -108 q2 -37.5 7.5 -84 q5.5 -46.5 17 -79 q11.5 -32.5 29.5 -61.5 q37 -59 115 -59 q118 0 236 116 l0 506 q-43 69 -81 96 q-47 33 -118 33 q-64 0 -105.5 -30.5 q-41.5 -30.5 -63 -84.5 Z" /><glyph glyph-name="r" unicode="r" d="M519 976 q23 60 54 91 q34 33 65 48 q34 17 84 32 q50 15 148 15 l0 -299 q-51 18 -114 18 q-115 0 -227 -85 l0 -796 l-351 0 l0 1160 l301 0 l40 -184 Z" /><glyph glyph-name="s" unicode="s" d="M451 496 q-199 77 -258 141 q-70 76 -70 227 q0 151 123.5 241.5 q123.5 90.5 344.5 90.5 q117 0 235 -30.5 q118 -30.5 170 -52.5 l24 -9 l-66 -222 q-73 28 -170 50.5 q-97 22.5 -165 24 q-68 1.5 -108 -10 q-40 -11.5 -54.5 -26.5 q-14.5 -15 -17 -54 q-2.5 -39 16.5 -58 q19 -19 73 -40 l298 -114 q63 -23 107 -55 q108 -78 108 -251 q0 -236 -207 -322 q-124 -51 -265 -51 q-272 0 -444 103 l66 228 q75 -34 181 -63 q99 -26 175 -28 q87 -2 122 18 q46 26 46 106 q-1 53 -108 95 l-157 62 Z" /><glyph glyph-name="t" unicode="t" d="M577 -16 q-89 0 -155.5 25.5 q-66.5 25.5 -114.5 80.5 q-48 55 -72.5 146 q-24.5 91 -24.5 217 l0 563 l-210 0 l0 144 l219 0 l10 433 l330 84 l0 -517 l326 0 l0 -144 l-326 0 l0 -598 q0 -90 27.5 -137.5 q27.5 -47.5 93.5 -48.5 q34 0 73 12.5 q39 12.5 61 25.5 q23 12 22 14 l82 -211 q-6 -4 -16.5 -10 q-10.5 -6 -46 -21 q-35.5 -15 -73 -27 q-37.5 -12 -94 -21.5 q-56.5 -9.5 -111.5 -9.5 Z" /><glyph glyph-name="u" unicode="u" d="M546 423 q-1 -99 34 -157 q33 -54 116 -58 q107 8 186 96 l0 856 l351 0 l0 -1160 l-247 0 l-77 177 q-43 -110 -92 -147 q-71 -56 -189 -56 q-218 0 -323 119 q-105 119 -105 356 l0 711 l346 0 l0 -737 Z" /><glyph glyph-name="v" unicode="v" d="M801 0 l-424 0 l-371 1160 l368 0 l215 -859 l213 859 l372 0 l-373 -1160 Z" /><glyph glyph-name="w" unicode="w" d="M958 0 l-150 652 l-146 -652 l-349 0 l-289 1160 l325 0 l152 -757 l158 757 l307 0 l157 -755 l159 755 l319 0 l-290 -1160 l-353 0 Z" /><glyph glyph-name="x" unicode="x" d="M577 346 l-187 -346 l-387 0 l396 584 l-404 576 l395 0 l191 -327 l186 327 l388 0 l-395 -576 l389 -584 l-382 0 l-190 346 Z" /><glyph glyph-name="y" unicode="y" d="M506 43 l-482 1117 l358 0 l276 -786 l192 786 l354 0 l-396 -1192 q-72 -222 -204 -328 q-132 -106 -352 -108 l-98 237 q96 7 157 24.5 q61 17.5 99 54.5 q38 37 57 79.5 q19 42.5 39 115.5 Z" /><glyph glyph-name="z" unicode="z" d="M590 897 l-476 1 l0 264 l852 0 l0 -231 l-481 -667 l492 0 l0 -264 l-875 0 l0 233 l488 664 Z" /><glyph glyph-name="braceleft" unicode="{" d="M583 982 q0 -71 -12 -127.5 q-12 -56.5 -29 -90.5 q-17 -34 -43 -59.5 q-26 -25.5 -48 -37.5 q-22 -12 -50 -22 q183 -69 183 -338 q0 -114 5 -180 q5 -66 20 -98.5 q15 -32.5 32.5 -41 q17.5 -8.5 50.5 -8.5 l0 -189 q-48 0 -90 5 q-42 5 -87.5 19 q-45.5 14 -82 36 q-36.5 22 -71 58.5 q-34.5 36.5 -57.5 85 q-23 48.5 -36.5 117 q-13.5 68.5 -13.5 151.5 q0 112 -11.5 174.5 q-11.5 62.5 -34.5 88 q-23 25.5 -63 25.5 l0 189 q40 0 63 26 q23 26 34 88.5 q11 62.5 11 173.5 q0 83 13.5 151.5 q13.5 68.5 37 117 q23.5 48.5 57.5 85 q34 36.5 71 58.5 q37 22 82.5 36 q45.5 14 87.5 19 q42 5 90 5 l0 -189 q-33 0 -50.5 -8.5 q-17.5 -8.5 -32.5 -41 q-15 -32.5 -20.5 -98.5 q-5.5 -66 -5.5 -180 Z" /><glyph glyph-name="bar" unicode="|" d="M252 -147 l0 1814 l308 0 l2 -1814 l-310 0 Z" /><glyph glyph-name="braceright" unicode="}" d="M269 982 q0 77 -2.5 130.5 q-2.5 53.5 -9 90.5 q-6.5 37 -14 58 q-7.5 21 -21 32 q-13.5 11 -27 14 q-13.5 3 -35.5 3 l0 189 q48 0 90 -5 q42 -5 87.5 -19 q45.5 -14 82.5 -36 q37 -22 71 -58.5 q34 -36.5 57.5 -85 q23.5 -48.5 37 -117 q13.5 -68.5 13.5 -151.5 q0 -164 24 -226 q24 -62 84 -62 l0 -189 q-60 0 -84.5 -61.5 q-24.5 -61.5 -24.5 -226.5 q0 -83 -13.5 -151.5 q-13.5 -68.5 -36.5 -117 q-23 -48.5 -57.5 -85 q-34.5 -36.5 -71 -58.5 q-36.5 -22 -82 -36 q-45.5 -14 -87.5 -19 q-42 -5 -90 -5 l0 189 q22 0 35.5 3 q13.5 3 27 14 q13.5 11 21 32 q7.5 21 13.5 58 q6 37 8.5 90.5 q2.5 53.5 2.5 130.5 q0 269 183 338 q-28 10 -50 22 q-22 12 -48 37.5 q-26 25.5 -43 59.5 q-17 34 -29 90.5 q-12 56.5 -12 127.5 Z" /><glyph glyph-name="asciitilde" unicode="~" d="M829 310 q-47 0 -95.5 15.5 q-48.5 15.5 -88.5 38.5 l-76 44 q-36 22 -68.5 37.5 q-32.5 15.5 -55.5 15.5 q-31 0 -45.5 -28.5 q-14.5 -28.5 -14.5 -96.5 l-208 0 q0 166 57.5 252 q57.5 86 172.5 86 q48 0 94 -14.5 q46 -14.5 81 -35.5 l69 -43 q33 -21 67.5 -35.5 q34.5 -14.5 64.5 -14.5 q35 0 46.5 20.5 q11.5 20.5 11.5 83.5 l220 0 q0 -148 -62.5 -236.5 q-62.5 -88.5 -169.5 -88.5 Z" /><glyph glyph-name="nonbreakingspace" unicode=" " d="" /><glyph glyph-name="exclamdown" unicode="¡" d="M607 -1 l-429 0 l111 1066 l210 0 l108 -1066 ZM270 1208.5 q-53 55.5 -53 138.5 q0 83 53 138.5 q53 55.5 135.5 55.5 q82.5 0 136 -55.5 q53.5 -55.5 53.5 -138.5 q0 -83 -53.5 -138.5 q-53.5 -55.5 -136 -55.5 q-82.5 0 -135.5 55.5 Z" /><glyph glyph-name="cent" unicode="¢" d="M620 -147 l1 1524 l162 0 l1 -1524 l-164 0 ZM78 586 q0 114 31 212.5 q31 98.5 85 168.5 q54 70 126 120 q72 50 153.5 74.5 q81.5 24.5 168.5 24.5 q133 0 220.5 -25.5 q87.5 -25.5 180.5 -74.5 l-65 -225 q-27 26 -111 57.5 q-84 31.5 -165 31.5 q-149 0 -210.5 -86.5 q-61.5 -86.5 -61.5 -277.5 q0 -364 299 -364 q34 0 72 9 q38 9 68.5 22 q30.5 13 55.5 26.5 q25 13.5 39 22.5 q14 9 13 9 l65 -225 q-61 -32 -105.5 -50 q-44.5 -18 -124 -34 q-79.5 -16 -171.5 -16 q-118 0 -220 40 q-102 40 -178.5 114 q-76.5 74 -120.5 189 q-44 115 -44 257 Z" /><glyph glyph-name="sterling" unicode="£" d="M188 260 l8 10 q8 9 21 25.5 q13 16.5 28.5 38.5 q15.5 22 31 50 q15.5 28 28 57.5 q12.5 29.5 20.5 64.5 q8 35 8 67 l-127 -1 l0 143 l103 0 q0 -2 -11.5 9 q-11.5 11 -28 32.5 q-16.5 21.5 -33 50 q-16.5 28.5 -28 68.5 q-11.5 40 -11.5 81 q0 79 30.5 146 q30.5 67 88 116 q57.5 49 145.5 76.5 q88 27.5 198 27.5 q60 0 116.5 -7.5 q56.5 -7.5 99 -19.5 q42.5 -12 80 -26.5 q37.5 -14.5 63 -28.5 q25.5 -14 44 -26 q18.5 -12 26.5 -18 l9 -7 l-133 -218 l-10 9 q-11 9 -34.5 22.5 q-23.5 13.5 -53.5 26.5 q-30 13 -74 22.5 q-44 9.5 -91 9.5 q-48 0 -82.5 -10 q-34.5 -10 -53 -24.5 q-18.5 -14.5 -29.5 -36 q-11 -21.5 -14 -40 q-3 -18.5 -3 -41.5 q0 -82 55 -159 l25 -30 l405 0 l0 -148 l-387 0 q0 -64 -15.5 -119 q-15.5 -55 -34.5 -87 q-19 -32 -44.5 -57.5 q-25.5 -25.5 -35.5 -32.5 q-10 -7 -16 -10 l591 0 l0 -266 l-871 0 l-3 260 Z" /><glyph glyph-name="currency" unicode="¤" d="M719 1249 q-72 0 -135.5 -38 q-63.5 -38 -102 -101.5 q-38.5 -63.5 -38.5 -134.5 q0 -107 78 -183 q78 -76 181 -76 q71 0 134.5 38 q63.5 38 101.5 101.5 q38 63.5 38 135.5 q0 107 -77.5 182.5 q-77.5 75.5 -179.5 75.5 ZM337 732 q-70 107 -70 235 q0 135 78 250 l-202 202 l129 130 l202 -202 q116 79 253 79 q128 0 234 -70 l193 193 l129 -130 l-195 -195 q64 -102 64 -223 q0 -137 -79 -253 l210 -210 l-129 -130 l-211 211 q-115 -78 -250 -78 q-122 0 -224 63 l-197 -196 l-129 130 l194 194 Z" /><glyph glyph-name="yen" unicode="¥" d="M636 811 l300 766 l384 0 l-388 -806 l202 0 l0 -120 l-260 0 l-62 -129 l322 0 l0 -120 l-324 0 l0 -402 l-348 0 l0 402 l-324 0 l0 120 l322 0 l-61 129 l-261 0 l0 120 l204 0 l-384 806 l378 0 l300 -766 Z" /><glyph glyph-name="brokenbar" unicode="¦" d="M225 -147 l1 746 l308 0 l1 -746 l-310 0 ZM225 921 l1 746 l308 0 l1 -746 l-310 0 Z" /><glyph glyph-name="section" unicode="§" d="M959 1423 l-92 -203 q-53 42 -150.5 81 q-97.5 39 -170.5 39 q-49 0 -84 -7 q-35 -7 -53 -16.5 q-18 -9.5 -28.5 -23.5 q-10.5 -14 -13 -25 q-2.5 -11 -2.5 -24 q0 -11 0.5 -15 q0.5 -4 6.5 -14 q6 -10 18 -17.5 q12 -7.5 36.5 -19 q24.5 -11.5 60.5 -24.5 l156 -56 q91 -33 154.5 -65.5 q63.5 -32.5 102.5 -63 q39 -30.5 60.5 -68 q21.5 -37.5 29 -73.5 q7.5 -36 7.5 -85 q0 -80 -47.5 -145 q-47.5 -65 -136.5 -92 q52 -22 89.5 -54.5 q37.5 -32.5 58 -70.5 q20.5 -38 29.5 -76 q9 -38 9 -79 q0 -60 -15.5 -108.5 q-15.5 -48.5 -41 -83 q-25.5 -34.5 -63 -60.5 q-37.5 -26 -77.5 -41.5 q-40 -15.5 -88 -25.5 q-48 -10 -91 -13.5 q-43 -3.5 -91 -3.5 q-100 0 -219 39.5 q-119 39.5 -178 88.5 l-29 25 l95 215 l8 -7 q8 -7 24 -19 l37 -25 q21 -14 49 -28 q28 -14 58.5 -25.5 q30.5 -11.5 68 -18.5 q37.5 -7 74.5 -7 q209 0 209 122 q0 53 -33 80 q-33 27 -114 53 l-160 54 q-99 34 -160.5 66.5 q-61.5 32.5 -95.5 73.5 q-34 41 -46 84 q-12 43 -12 107 q0 31 9.5 64.5 q9.5 33.5 30.5 68 q21 34.5 59.5 62.5 q38.5 28 89.5 42 q-189 67 -189 267 q0 44 13.5 85.5 q13.5 41.5 45.5 82 q32 40.5 80 71 q48 30.5 122 49 q74 18.5 166 18.5 q63 0 130.5 -16.5 q67.5 -16.5 114 -36 q46.5 -19.5 92.5 -46 q46 -26.5 61.5 -37.5 q15.5 -11 25.5 -19 ZM547 648 q189 0 189 100 q0 24 -7.5 41.5 q-7.5 17.5 -27 32.5 q-19.5 15 -58 22.5 q-38.5 7.5 -95.5 7.5 q-49 0 -84 -6 q-35 -6 -54 -15.5 q-19 -9.5 -30 -24 q-11 -14.5 -14 -27 q-3 -12.5 -3 -29.5 q0 -51 43 -76.5 q43 -25.5 141 -25.5 Z" /><glyph glyph-name="dieresis" unicode="¨" d="M823.5 55.5 q-55.5 55.5 -55.5 138.5 q0 83 55.5 138.5 q55.5 55.5 137.5 55.5 q82 0 139 -55.5 q57 -55.5 57 -138.5 q0 -83 -57 -138.5 q-57 -55.5 -139 -55.5 q-82 0 -137.5 55.5 ZM153.5 55.5 q-55.5 55.5 -55.5 138.5 q0 83 55.5 138.5 q55.5 55.5 137.5 55.5 q82 0 139 -55.5 q57 -55.5 57 -138.5 q0 -83 -57 -138.5 q-57 -55.5 -139 -55.5 q-82 0 -137.5 55.5 Z" /><glyph glyph-name="copyright" unicode="©" d="M1074 101 q145 0 272.5 54.5 q127.5 54.5 216 147 q88.5 92.5 139.5 219 q51 126.5 51 267.5 q0 60 -11.5 123.5 q-11.5 63.5 -38 130 q-26.5 66.5 -65 128 q-38.5 61.5 -95.5 116 q-57 54.5 -127 94.5 q-70 40 -163 63.5 q-93 23.5 -198 23.5 q-99 0 -195.5 -30.5 q-96.5 -30.5 -180.5 -90 q-84 -59.5 -148.5 -140.5 q-64.5 -81 -102 -191 q-37.5 -110 -37.5 -233 q0 -141 50 -266.5 q50 -125.5 138 -217 q88 -91.5 216.5 -145 q128.5 -53.5 278.5 -53.5 ZM1060 1703 q156 0 293.5 -41 q137.5 -41 235.5 -105.5 q98 -64.5 177 -151.5 q79 -87 126.5 -172 q47.5 -85 75.5 -174 q43 -135 41 -305 q0 -51 -7 -106.5 q-7 -55.5 -27 -122 q-20 -66.5 -49.5 -131 q-29.5 -64.5 -76.5 -132.5 q-47 -68 -106.5 -126.5 q-59.5 -58.5 -142.5 -112 q-83 -53.5 -182 -91.5 q-166 -64 -352 -65 q-122 0 -239.5 30.5 q-117.5 30.5 -220 85.5 q-102.5 55 -190 137.5 q-87.5 82.5 -150 182 q-62.5 99.5 -97 223 q-34.5 123.5 -34.5 257.5 q0 136 36 260.5 q36 124.5 100.5 224.5 q64.5 100 152.5 182.5 q88 82.5 190.5 137.5 q102.5 55 217 85 q114.5 30 228.5 30 ZM844 784 q0 -85 16.5 -145.5 q16.5 -60.5 48.5 -95 q32 -34.5 74 -49.5 q42 -15 97 -15 q106 0 222 57 l74 37 l0 -219 l-28 -14 q-140 -70 -256 -70 q-109 0 -195 31 q-86 31 -139.5 81.5 q-53.5 50.5 -88 119 q-34.5 68.5 -48 138 q-13.5 69.5 -13.5 144.5 q0 154 54.5 269.5 q54.5 115.5 161 180 q106.5 64.5 252.5 64.5 q70 0 150.5 -21.5 q80.5 -21.5 117.5 -44.5 l24 -15 l0 -210 l-74 37 q-32 16 -93.5 30.5 q-61.5 14.5 -128.5 14.5 q-53 0 -94 -17.5 q-41 -17.5 -66 -46 q-25 -28.5 -40.5 -69 q-15.5 -40.5 -21.5 -82.5 q-6 -42 -6 -90 Z" /><glyph glyph-name="ordfeminine" unicode="ª" d="M663 1067 q-103 0 -147 -29 q-44 -29 -44 -97 q0 -68 31.5 -103 q31.5 -35 87.5 -35 q88 0 149 74 l0 183 q2 2 -30.5 4.5 q-32.5 2.5 -46.5 2.5 ZM616 1392 q-161 0 -298 -65 l-67 168 q148 91 375 91 q261 0 344 -167 q49 -96 49 -251 l0 -539 l-217 0 l-39 120 q-40 -70 -98 -105.5 q-58 -35.5 -147 -35.5 q-155 0 -240.5 80.5 q-85.5 80.5 -85.5 229.5 q0 149 112 221.5 q112 72.5 314 72.5 q70 0 122 -9 q0 92 -8 113 q-17 46 -43.5 61 q-26.5 15 -72.5 15 Z" /><glyph glyph-name="guillemotleft" unicode="«" d="M904 862 l-472 -283 l472 -294 l0 -336 l-806 504 l0 243 l806 504 l0 -338 ZM1708 862 l-472 -283 l472 -294 l0 -336 l-806 504 l0 243 l806 504 l0 -338 Z" /><glyph glyph-name="logicalnot" unicode="¬" d="M867 584 l-804 0 l0 262 l996 0 l0 -262 l0 -360 l-192 0 l0 360 Z" /><glyph glyph-name="uni00AD" unicode="­" d="M950 574 l-794 0 l0 262 l794 0 l0 -262 Z" /><glyph glyph-name="registered" unicode="®" d="M665 1274 q72 0 107 20.5 q35 20.5 35 75.5 q0 47 -37.5 63.5 q-37.5 16.5 -153.5 16.5 l0 -176 l49 0 ZM961 927 l-128 -63 l-183 298 l-39 0 l0 -272 l-132 0 l0 669 l136 0 q72 0 127 -8.5 q55 -8.5 101.5 -28 q46.5 -19.5 71.5 -56.5 q25 -37 25 -91 q0 -78 -36 -120 q-36 -42 -129 -68 l186 -260 ZM15 1220 q0 175 86.5 323.5 q86.5 148.5 241.5 236.5 q155 88 345 88 q186 0 341.5 -86.5 q155.5 -86.5 244.5 -234.5 q89 -148 89 -327 q0 -179 -89 -327 q-89 -148 -244.5 -234.5 q-155.5 -86.5 -341.5 -86.5 q-188 0 -344 88 q-156 88 -242.5 235.5 q-86.5 147.5 -86.5 324.5 ZM1065.5 1583 q-150.5 147 -378.5 147 q-228 0 -377.5 -148 q-149.5 -148 -149.5 -364.5 q0 -216.5 149.5 -363 q149.5 -146.5 377.5 -146.5 q229 0 379 148 q150 148 150 362 q0 218 -150.5 365 Z" /><glyph glyph-name="macron" unicode="¯" d="M341 122 l-682 0 l0 127 l682 0 l0 -127 Z" /><glyph glyph-name="degree" unicode="°" d="M269.5 1145.5 q-53.5 -50.5 -53.5 -126 q0 -75.5 53.5 -126 q53.5 -50.5 127 -50.5 q73.5 0 126.5 50.5 q53 50.5 53 126 q0 75.5 -53 126 q-53 50.5 -126.5 50.5 q-73.5 0 -127 -50.5 ZM82.5 845 q-51.5 79 -51.5 174.5 q0 95.5 51.5 174.5 q51.5 79 135 122 q83.5 43 179.5 43 q96 0 179 -43 q83 -43 134 -121.5 q51 -78.5 51 -174.5 q0 -96 -51 -175 q-51 -79 -134 -122 q-83 -43 -179 -43 q-96 0 -179.5 43 q-83.5 43 -135 122 Z" /><glyph glyph-name="plusminus" unicode="±" d="M1023 770 l-279 0 l0 -353 l-288 0 l0 353 l-277 0 l0 269 l277 0 l0 350 l288 0 l0 -350 l279 0 l0 -269 ZM998 -20 l-794 0 l0 262 l794 0 l0 -262 Z" /><glyph glyph-name="twosuperior" unicode="²" d="M629 1251 q0 58 -29 86.5 q-29 28.5 -94 28.5 q-35 0 -80.5 -11 q-45.5 -11 -89.5 -29 l-64 -26 q-20 -9 -36 -17 l-1 -1 l-73 191 l2 1 q20 10 45 21 q25 11 79.5 32 q54.5 21 117 34.5 q62.5 13.5 118.5 13.5 q55 0 106 -9 q51 -9 100.5 -30 q49.5 -21 85.5 -52.5 q36 -31.5 58 -81.5 q22 -50 22 -113 q0 -94 -46 -171.5 q-46 -77.5 -162 -178.5 l-115 -103 l298 0 l0 -214 l-687 0 l0 174 l260 220 q4 2 25 19.5 q21 17.5 28 24.5 l27 23 q20 17 28 27 l23 26 q16 16 23 28 q7 12 15.5 28 q8.5 16 12 30 q3.5 14 3.5 29 Z" /><glyph glyph-name="threesuperior" unicode="³" d="M622 1340 q0 45 -36.5 67 q-36.5 22 -95.5 22 q-21 0 -44 -3 q-23 -3 -44.5 -8 q-21.5 -5 -43 -11 q-21.5 -6 -38.5 -12 q-17 -6 -30 -11 q-13 -5 -21 -8 l-7 -3 l-91 183 l14 8 q16 8 44 20.5 q28 12.5 62.5 24.5 q34.5 12 82.5 21 q48 9 96 9 q73 0 132 -10 q59 -10 109 -32 q50 -22 84 -57 q34 -35 54 -86.5 q20 -51.5 21 -118.5 q2 -75 -42 -138.5 q-44 -63.5 -119 -81.5 q82 -20 136 -91 q54 -71 54 -156 q0 -85 -31 -149.5 q-31 -64.5 -87.5 -104 q-56.5 -39.5 -131 -59 q-74.5 -19.5 -164.5 -19.5 q-52 0 -101.5 5.5 q-49.5 5.5 -84 13.5 q-34.5 8 -61 16 q-26.5 8 -39.5 14 l-14 6 l67 201 l1 0 q17 -7 41 -15.5 q24 -8.5 81 -21 q57 -12.5 102 -12.5 q80 0 121.5 28 q41.5 28 41.5 95 q0 48 -35 83.5 q-35 35.5 -88 52 q-53 16.5 -114 14.5 l0 197 q44 0 81.5 7 q37.5 7 69 21 q31.5 14 50 40 q18.5 26 18.5 59 Z" /><glyph glyph-name="acute" unicode="´" d="M448 308 l-157 74 l203 613 l312 -145 l-358 -542 Z" /><glyph glyph-name="mu" unicode="µ" d="M620 -15 q-28 0 -60.5 7.5 q-32.5 7.5 -51 14.5 q-18.5 7 -19.5 9 l0 -504 l-350 60 l0 1589 l350 0 l0 -884 l6 -3 q6 -3 18 -8.5 q12 -5.5 27.5 -12 q15.5 -6.5 34.5 -13 q19 -6.5 37.5 -11.5 q18.5 -5 39 -8 q20.5 -3 36.5 -2 q124 6 186 77 l0 865 l352 0 l0 -1160 l-248 0 l-78 167 q-9 -32 -29.5 -62.5 q-20.5 -30.5 -53.5 -58.5 q-33 -28 -84 -45 q-51 -17 -113 -17 Z" /><glyph glyph-name="paragraph" unicode="¶" d="M1288 1578 l0 -1578 l-256 0 l0 1428 l-135 0 l0 -1428 l-259 0 l0 711 q-93 0 -172.5 12.5 q-79.5 12.5 -152 44.5 q-72.5 32 -123.5 81.5 q-51 49.5 -81 127.5 q-30 78 -30 178 q0 75 19 136.5 q19 61.5 50.5 104.5 q31.5 43 78 76 q46.5 33 97.5 52.5 q51 19.5 113.5 31.5 q62.5 12 120.5 16.5 q58 4.5 124 4.5 l105 0 l501 1 Z" /><glyph glyph-name="periodcentered" unicode="·" d="M161.5 556 q-61.5 62 -61.5 149 q0 87 61.5 149 q61.5 62 149 62 q87.5 0 149.5 -62 q62 -62 62 -149 q0 -87 -62 -149 q-62 -62 -149.5 -62 q-87.5 0 -149 62 Z" /><glyph glyph-name="cedilla" unicode="¸" d="M78 -611 l0 137 l8 -4 q9 -4 26 -10.5 q17 -6.5 37 -13 q20 -6.5 47.5 -11 q27.5 -4.5 53.5 -4.5 q35 0 57.5 3.5 q22.5 3.5 42.5 15 q20 11.5 29 35.5 q9 24 9 62 q0 162 -260 162 l20 262 l120 0 l-20 -174 q27 0 59 -5 q32 -5 70.5 -15 q38.5 -10 73.5 -29 q35 -19 65 -44.5 q30 -25.5 47.5 -64.5 q17.5 -39 18.5 -86 q0 -132 -74 -201 q-74 -69 -216 -69 q-113 0 -207 50 l-7 4 Z" /><glyph glyph-name="onesuperior" unicode="¹" d="M344 702 l0 714 l-125 -54 l-75 190 l214 87 l264 -2 l0 -935 l-278 0 Z" /><glyph glyph-name="ordmasculine" unicode="º" d="M478 932 q43 -73 133 -73 q90 0 133 73 q43 73 43 228 q0 155 -43 228 q-43 73 -133 73 q-90 0 -133 -73 q-43 -73 -43 -228 q0 -155 43 -228 ZM273.5 1520.5 q118.5 129.5 337 129.5 q218.5 0 336.5 -129.5 q118 -129.5 118 -361.5 q0 -232 -117.5 -359.5 q-117.5 -127.5 -336.5 -127.5 q-219 0 -337.5 127.5 q-118.5 127.5 -118.5 359.5 q0 232 118.5 361.5 Z" /><glyph glyph-name="guillemotright" unicode="»" d="M974 862 l0 338 l806 -504 l0 -243 l-806 -504 l0 336 l481 294 l-481 283 ZM170 862 l0 338 l806 -504 l0 -243 l-806 -504 l0 336 l481 294 l-481 283 Z" /><glyph glyph-name="onequarter" unicode="¼" d="M447 -29 l706 1570 l226 -83 l-713 -1565 l-219 78 ZM1526 1023 l207 -53 l0 -667 l139 0 l0 -207 l-139 0 l0 -221 l-244 1 l0 220 l-449 0 l-33 161 l519 766 ZM1313 301 l176 0 l0 296 l-176 -296 ZM258 411 l0 714 l-125 -54 l-75 190 l286 112 l178 -40 l0 -922 l-264 0 Z" /><glyph glyph-name="onehalf" unicode="½" d="M447 -29 l706 1570 l226 -83 l-713 -1565 l-219 78 ZM258 411 l0 714 l-125 -54 l-75 190 l286 112 l178 -40 l0 -922 l-264 0 ZM1728 725 q0 58 -29.5 86.5 q-29.5 28.5 -94.5 28.5 q-48 0 -115.5 -21 q-67.5 -21 -111.5 -42 l-44 -21 l-72 191 l7 3 q7 4 19.5 10 q12.5 6 30.5 14 l39 16 l46 16 q24 9 51.5 16.5 q27.5 7.5 54.5 13.5 q27 6 56.5 9.5 q29.5 3.5 56.5 3.5 q71 0 133.5 -15 q62.5 -15 118 -46.5 q55.5 -31.5 88 -89.5 q32.5 -58 32.5 -135 q0 -94 -46 -171 q-46 -77 -161 -179 l-115 -103 l298 0 l0 -214 l-687 0 l0 174 l260 219 l25 21 q20 16 28 24 l26 24 q19 16 28 26 l24 26 q15 16 22 28 l16 28 q9 15 12.5 30 q3.5 15 3.5 29 Z" /><glyph glyph-name="threequarters" unicode="¾" d="M1690 1023 l207 -53 l0 -667 l139 0 l0 -207 l-139 0 l0 -221 l-224 1 l0 220 l-469 0 l-33 161 l519 766 ZM1467 301 l206 0 l0 306 l-206 -306 ZM611 -29 l705 1570 l227 -83 l-713 -1565 l-219 78 ZM533 1213 q0 45 -36.5 67 q-36.5 22 -95.5 22 q-44 0 -101 -14 q-57 -14 -92 -28 l-35 -14 l-91 183 l14 8 q15 8 43 20.5 q28 12.5 63 24.5 q35 12 83 20.5 q48 8.5 96 8.5 q91 0 161.5 -16 q70.5 -16 124.5 -50.5 q54 -34.5 83.5 -94 q29.5 -59.5 31.5 -142.5 q0 -75 -44 -138.5 q-44 -63.5 -118 -82.5 q81 -20 135.5 -90.5 q54.5 -70.5 54.5 -155.5 q0 -85 -31.5 -149.5 q-31.5 -64.5 -87.5 -104 q-56 -39.5 -130.5 -59 q-74.5 -19.5 -164.5 -19.5 q-38 0 -74.5 3 q-36.5 3 -65 7.5 q-28.5 4.5 -54.5 10.5 q-26 6 -45 12 l-33 10 q-14 5 -21 8 q-7 3 -6 3 l66 202 q13 -6 36 -14 q23 -8 82.5 -22 q59.5 -14 106.5 -14 q81 0 122 28 q41 28 41 95 q0 48 -34.5 83.5 q-34.5 35.5 -88 52.5 q-53.5 17 -114.5 15 l0 197 q59 0 106.5 11.5 q47.5 11.5 80 41 q32.5 29.5 32.5 74.5 Z" /><glyph glyph-name="questiondown" unicode="¿" d="M444 318 q0 -40 13.5 -68 q13.5 -28 34 -44 q20.5 -16 55.5 -24.5 q35 -8.5 67 -11 q32 -2.5 80 -2.5 q54 0 138 18 q84 18 141.5 35.5 q57.5 17.5 57.5 18.5 l81 -253 q-55 -28 -94 -41 q-153 -51 -354 -51 q-118 0 -215.5 21 q-97.5 21 -176 65.5 q-78.5 44.5 -122.5 121.5 q-44 77 -44 182 q0 26 2 50 q2 24 12.5 65.5 q10.5 41.5 29 77.5 q18.5 36 54.5 80.5 q36 44.5 84.5 81.5 q48.5 37 125 73 q76.5 36 170.5 63 l0 254 l321 0 l0 -409 q-28 -11 -72 -25 l-78 -26 q-34 -11 -76.5 -27.5 q-42.5 -16.5 -74 -31.5 q-31.5 -15 -63 -36 q-31.5 -21 -52 -43.5 q-20.5 -22.5 -33 -51.5 q-12.5 -29 -12.5 -62 ZM863.5 1463.5 q53.5 -55.5 53.5 -138.5 q0 -83 -53.5 -138.5 q-53.5 -55.5 -135.5 -55.5 q-82 0 -135.5 55.5 q-53.5 55.5 -53.5 138.5 q0 83 53.5 138.5 q53.5 55.5 135.5 55.5 q82 0 135.5 -55.5 Z" /><glyph glyph-name="Agrave" unicode="à" d="M787 1137 l-202 -617 l392 0 l-190 617 ZM578 1578 l406 0 l520 -1578 l-369 0 l-111 350 l-486 0 l-111 -350 l-369 0 l520 1578 ZM750 1727 l-358 542 l312 145 l203 -613 l-157 -74 Z" /><glyph glyph-name="Aacute" unicode="á" d="M787 1137 l-202 -617 l392 0 l-190 617 ZM578 1578 l406 0 l520 -1578 l-369 0 l-111 350 l-486 0 l-111 -350 l-369 0 l520 1578 ZM750 1727 l-157 74 l203 613 l312 -145 l-358 -542 Z" /><glyph glyph-name="Acircumflex" unicode="â" d="M787 1137 l-202 -617 l392 0 l-190 617 ZM578 1578 l406 0 l520 -1578 l-369 0 l-111 350 l-486 0 l-111 -350 l-369 0 l520 1578 ZM663 2346 l254 0 l258 -619 l-274 0 l-112 384 l-112 -384 l-272 0 l258 619 Z" /><glyph glyph-name="Atilde" unicode="ã" d="M787 1137 l-202 -617 l392 0 l-190 617 ZM578 1578 l406 0 l520 -1578 l-369 0 l-111 350 l-486 0 l-111 -350 l-369 0 l520 1578 ZM1000 1727 q-47 0 -95.5 15.5 q-48.5 15.5 -88.5 38.5 l-76 44 q-36 22 -68.5 37.5 q-32.5 15.5 -55.5 15.5 q-31 0 -45.5 -28.5 q-14.5 -28.5 -14.5 -96.5 l-208 0 q0 166 57.5 252 q57.5 86 172.5 86 q48 0 94 -14.5 q46 -14.5 81 -35.5 l69 -43 q33 -21 67.5 -35.5 q34.5 -14.5 64.5 -14.5 q35 0 46.5 20.5 q11.5 20.5 11.5 83.5 l220 0 q0 -148 -62.5 -236.5 q-62.5 -88.5 -169.5 -88.5 Z" /><glyph glyph-name="Adieresis" unicode="ä" d="M787 1137 l-202 -617 l392 0 l-190 617 ZM578 1578 l406 0 l520 -1578 l-369 0 l-111 350 l-486 0 l-111 -350 l-369 0 l520 1578 ZM990.5 1794.5 q-55.5 55.5 -55.5 138.5 q0 83 55.5 138.5 q55.5 55.5 137.5 55.5 q82 0 139 -55.5 q57 -55.5 57 -138.5 q0 -83 -57 -138.5 q-57 -55.5 -139 -55.5 q-82 0 -137.5 55.5 ZM320.5 1794.5 q-55.5 55.5 -55.5 138.5 q0 83 55.5 138.5 q55.5 55.5 137.5 55.5 q82 0 139 -55.5 q57 -55.5 57 -138.5 q0 -83 -57 -138.5 q-57 -55.5 -139 -55.5 q-82 0 -137.5 55.5 Z" /><glyph glyph-name="Aring" unicode="å" d="M468 1677 q-52 79 -52 174.5 q0 95.5 51.5 174.5 q51.5 79 135 122 q83.5 43 179.5 43 q96 0 179 -43 q83 -43 134 -121.5 q51 -78.5 51 -174.5 q0 -96 -51 -175 q-43 -66 -108 -107 l517 -1570 l-369 0 l-111 350 l-486 0 l-111 -350 l-369 0 l517 1570 q-65 41 -107 107 ZM654.5 1977.5 q-53.5 -50.5 -53.5 -126 q0 -75.5 53.5 -126 q53.5 -50.5 127 -50.5 q73.5 0 126.5 50.5 q53 50.5 53 126 q0 75.5 -53 126 q-53 50.5 -126.5 50.5 q-73.5 0 -127 -50.5 ZM787 1137 l-202 -617 l392 0 l-190 617 Z" /><glyph glyph-name="AE" unicode="æ" d="M1859 1577 l0 -203 l-669 0 l0 -435 l579 0 l0 -197 l-579 0 l0 -519 l679 0 l0 -223 l-1040 0 l0 350 l-341 0 l-122 -350 l-359 0 l620 1577 l1232 0 ZM829 520 l0 823 l-294 -823 l294 0 Z" /><glyph glyph-name="Ccedilla" unicode="ç" d="M639 -640 l0 137 l8 -4 q9 -4 26 -10.5 q17 -6.5 37 -13 q20 -6.5 47.5 -11 q27.5 -4.5 53.5 -4.5 q35 0 57.5 3.5 q22.5 3.5 42.5 15 q20 11.5 29 35.5 q9 24 9 62 q0 162 -260 162 l18 241 q-280 19 -447 211 q-184 214 -184 607.5 q0 393.5 181 602 q181 208.5 512 208.5 q220 0 399 -74 q39 -17 57 -29 l18 -12 l-100 -260 l-18 13 l-23 15 q-126 81 -306.5 81 q-180.5 0 -266.5 -132 q-86 -132 -86 -422 q0 -543 360 -543 q181 0 340 109 l100 -260 q-85 -71 -301 -104 q-57 -9 -115 -12 l-18 -152 q27 0 59 -5 q32 -5 70.5 -15 q38.5 -10 73.5 -29 q35 -19 65 -44.5 q30 -25.5 47.5 -64.5 q17.5 -39 18.5 -86 q0 -132 -74 -201 q-74 -69 -216 -69 q-113 0 -207 50 l-7 4 Z" /><glyph glyph-name="Egrave" unicode="è" d="M1269 0 l-1080 0 l0 1578 l1070 0 l0 -269 l-702 0 l0 -380 l612 0 l0 -226 l-612 0 l0 -437 l712 0 l0 -266 ZM672 1727 l-358 542 l312 145 l203 -613 l-157 -74 Z" /><glyph glyph-name="Eacute" unicode="é" d="M1269 0 l-1080 0 l0 1578 l1070 0 l0 -269 l-702 0 l0 -380 l612 0 l0 -226 l-612 0 l0 -437 l712 0 l0 -266 ZM672 1727 l-157 74 l203 613 l312 -145 l-358 -542 Z" /><glyph glyph-name="Ecircumflex" unicode="ê" d="M1269 0 l-1080 0 l0 1578 l1070 0 l0 -269 l-702 0 l0 -380 l612 0 l0 -226 l-612 0 l0 -437 l712 0 l0 -266 ZM605 2346 l254 0 l258 -619 l-274 0 l-112 384 l-112 -384 l-272 0 l258 619 Z" /><glyph glyph-name="Edieresis" unicode="ë" d="M1269 0 l-1080 0 l0 1578 l1070 0 l0 -269 l-702 0 l0 -380 l612 0 l0 -226 l-612 0 l0 -437 l712 0 l0 -266 ZM872.5 1794.5 q-55.5 55.5 -55.5 138.5 q0 83 55.5 138.5 q55.5 55.5 137.5 55.5 q82 0 139 -55.5 q57 -55.5 57 -138.5 q0 -83 -57 -138.5 q-57 -55.5 -139 -55.5 q-82 0 -137.5 55.5 ZM202.5 1794.5 q-55.5 55.5 -55.5 138.5 q0 83 55.5 138.5 q55.5 55.5 137.5 55.5 q82 0 139 -55.5 q57 -55.5 57 -138.5 q0 -83 -57 -138.5 q-57 -55.5 -139 -55.5 q-82 0 -137.5 55.5 Z" /><glyph glyph-name="Igrave" unicode="ì" d="M77 170 l170 0 l0 1237 l-170 0 l0 171 l710 0 l0 -171 l-171 0 l0 -1237 l171 0 l0 -170 l-710 0 l0 170 ZM447 1727 l-358 542 l312 145 l203 -613 l-157 -74 Z" /><glyph glyph-name="Iacute" unicode="í" d="M77 170 l170 0 l0 1237 l-170 0 l0 171 l710 0 l0 -171 l-171 0 l0 -1237 l171 0 l0 -170 l-710 0 l0 170 ZM447 1727 l-157 74 l203 613 l312 -145 l-358 -542 Z" /><glyph glyph-name="Icircumflex" unicode="î" d="M77 170 l170 0 l0 1237 l-170 0 l0 171 l710 0 l0 -171 l-171 0 l0 -1237 l171 0 l0 -170 l-710 0 l0 170 ZM310 2346 l254 0 l258 -619 l-274 0 l-112 384 l-112 -384 l-272 0 l258 619 Z" /><glyph glyph-name="Idieresis" unicode="ï" d="M77 170 l170 0 l0 1237 l-170 0 l0 171 l710 0 l0 -171 l-171 0 l0 -1237 l171 0 l0 -170 l-710 0 l0 170 ZM647.5 1794.5 q-55.5 55.5 -55.5 138.5 q0 83 55.5 138.5 q55.5 55.5 137.5 55.5 q82 0 139 -55.5 q57 -55.5 57 -138.5 q0 -83 -57 -138.5 q-57 -55.5 -139 -55.5 q-82 0 -137.5 55.5 ZM-22.5 1794.5 q-55.5 55.5 -55.5 138.5 q0 83 55.5 138.5 q55.5 55.5 137.5 55.5 q82 0 139 -55.5 q57 -55.5 57 -138.5 q0 -83 -57 -138.5 q-57 -55.5 -139 -55.5 q-82 0 -137.5 55.5 Z" /><glyph glyph-name="Eth" unicode="ð" d="M1447 782 q0 -379 -197.5 -580.5 q-197.5 -201.5 -610.5 -201.5 l-500 0 l0 684 l-159 0 l0 232 l159 0 l0 662 l500 0 q808 0 808 -796 ZM1077 784 q0 78 -4 135.5 q-4 57.5 -16.5 117 q-12.5 59.5 -34 101 q-21.5 41.5 -57 79.5 q-35.5 38 -85.5 60.5 q-50 22.5 -120 35.5 q-70 13 -160 13 l-92 0 l0 -410 l263 0 l0 -232 l-263 0 l0 -430 l92 0 q88 0 157 12.5 q69 12.5 119 34 q50 21.5 86 58 q36 36.5 58 77.5 q22 41 35 98.5 q13 57.5 17.5 115.5 q4.5 58 4.5 134 Z" /><glyph glyph-name="Ntilde" unicode="ñ" d="M1481 0 l-381 0 l-622 1074 l0 -1074 l-329 0 l0 1578 l394 0 l611 -1059 l0 1059 l327 0 l0 -1578 ZM1045 1727 q-47 0 -95 15 q-50 16 -89 39 l-76 44 q-36 22 -68.5 37.5 q-32.5 15.5 -55.5 15.5 q-31 0 -45.5 -28.5 q-14.5 -28.5 -14.5 -96.5 l-208 0 q0 166 57.5 252 q57.5 86 172.5 86 q48 0 94 -15 q49 -15 81 -35 l69 -43 q35 -22 67 -36 q35 -14 65 -14 q35 0 46.5 20.5 q11.5 20.5 11.5 83.5 l220 0 q0 -148 -62.5 -236.5 q-62.5 -88.5 -169.5 -88.5 Z" /><glyph glyph-name="Ograve" unicode="ò" d="M279.5 1390.5 q176.5 214.5 533.5 214.5 q357 0 533.5 -214.5 q176.5 -214.5 176.5 -601.5 q0 -190 -42.5 -339.5 q-42.5 -149.5 -128.5 -256.5 q-86 -107 -222 -164 q-136 -57 -317 -57 q-181 0 -317 57 q-136 57 -222 164 q-86 107 -128.5 256.5 q-42.5 149.5 -42.5 339.5 q0 387 176.5 601.5 ZM952 1310.5 q-60 28.5 -139 28.5 q-79 0 -139 -28.5 q-60 -28.5 -98 -76.5 q-38 -48 -61.5 -119.5 q-23.5 -71.5 -33 -150 q-9.5 -78.5 -9.5 -175.5 q0 -97 9.5 -175.5 q9.5 -78.5 33 -150 q23.5 -71.5 61.5 -120 q38 -48.5 98 -77 q60 -28.5 139 -28.5 q79 0 139 28.5 q60 28.5 98 77 q38 48.5 61.5 120 q23.5 71.5 33 150 q9.5 78.5 9.5 175.5 q0 97 -9.5 175.5 q-9.5 78.5 -33 150 q-23.5 71.5 -61.5 119.5 q-38 48 -98 76.5 ZM791 1727 l-358 542 l312 145 l203 -613 l-157 -74 Z" /><glyph glyph-name="Oacute" unicode="ó" d="M279.5 1390.5 q176.5 214.5 533.5 214.5 q357 0 533.5 -214.5 q176.5 -214.5 176.5 -601.5 q0 -190 -42.5 -339.5 q-42.5 -149.5 -128.5 -256.5 q-86 -107 -222 -164 q-136 -57 -317 -57 q-181 0 -317 57 q-136 57 -222 164 q-86 107 -128.5 256.5 q-42.5 149.5 -42.5 339.5 q0 387 176.5 601.5 ZM952 1310.5 q-60 28.5 -139 28.5 q-79 0 -139 -28.5 q-60 -28.5 -98 -76.5 q-38 -48 -61.5 -119.5 q-23.5 -71.5 -33 -150 q-9.5 -78.5 -9.5 -175.5 q0 -97 9.5 -175.5 q9.5 -78.5 33 -150 q23.5 -71.5 61.5 -120 q38 -48.5 98 -77 q60 -28.5 139 -28.5 q79 0 139 28.5 q60 28.5 98 77 q38 48.5 61.5 120 q23.5 71.5 33 150 q9.5 78.5 9.5 175.5 q0 97 -9.5 175.5 q-9.5 78.5 -33 150 q-23.5 71.5 -61.5 119.5 q-38 48 -98 76.5 ZM791 1727 l-157 74 l203 613 l312 -145 l-358 -542 Z" /><glyph glyph-name="Ocircumflex" unicode="ô" d="M279.5 1390.5 q176.5 214.5 533.5 214.5 q357 0 533.5 -214.5 q176.5 -214.5 176.5 -601.5 q0 -190 -42.5 -339.5 q-42.5 -149.5 -128.5 -256.5 q-86 -107 -222 -164 q-136 -57 -317 -57 q-181 0 -317 57 q-136 57 -222 164 q-86 107 -128.5 256.5 q-42.5 149.5 -42.5 339.5 q0 387 176.5 601.5 ZM952 1310.5 q-60 28.5 -139 28.5 q-79 0 -139 -28.5 q-60 -28.5 -98 -76.5 q-38 -48 -61.5 -119.5 q-23.5 -71.5 -33 -150 q-9.5 -78.5 -9.5 -175.5 q0 -97 9.5 -175.5 q9.5 -78.5 33 -150 q23.5 -71.5 61.5 -120 q38 -48.5 98 -77 q60 -28.5 139 -28.5 q79 0 139 28.5 q60 28.5 98 77 q38 48.5 61.5 120 q23.5 71.5 33 150 q9.5 78.5 9.5 175.5 q0 97 -9.5 175.5 q-9.5 78.5 -33 150 q-23.5 71.5 -61.5 119.5 q-38 48 -98 76.5 ZM694 2346 l254 0 l258 -619 l-274 0 l-112 384 l-112 -384 l-272 0 l258 619 Z" /><glyph glyph-name="Otilde" unicode="õ" d="M279.5 1390.5 q176.5 214.5 533.5 214.5 q357 0 533.5 -214.5 q176.5 -214.5 176.5 -601.5 q0 -190 -42.5 -339.5 q-42.5 -149.5 -128.5 -256.5 q-86 -107 -222 -164 q-136 -57 -317 -57 q-181 0 -317 57 q-136 57 -222 164 q-86 107 -128.5 256.5 q-42.5 149.5 -42.5 339.5 q0 387 176.5 601.5 ZM952 1310.5 q-60 28.5 -139 28.5 q-79 0 -139 -28.5 q-60 -28.5 -98 -76.5 q-38 -48 -61.5 -119.5 q-23.5 -71.5 -33 -150 q-9.5 -78.5 -9.5 -175.5 q0 -97 9.5 -175.5 q9.5 -78.5 33 -150 q23.5 -71.5 61.5 -120 q38 -48.5 98 -77 q60 -28.5 139 -28.5 q79 0 139 28.5 q60 28.5 98 77 q38 48.5 61.5 120 q23.5 71.5 33 150 q9.5 78.5 9.5 175.5 q0 97 -9.5 175.5 q-9.5 78.5 -33 150 q-23.5 71.5 -61.5 119.5 q-38 48 -98 76.5 ZM1041 1727 q-47 0 -95.5 15.5 q-48.5 15.5 -88.5 38.5 l-76 44 q-36 22 -68.5 37.5 q-32.5 15.5 -55.5 15.5 q-31 0 -45.5 -28.5 q-14.5 -28.5 -14.5 -96.5 l-208 0 q0 166 57.5 252 q57.5 86 172.5 86 q48 0 94 -14.5 q46 -14.5 81 -35.5 l69 -43 q33 -21 67.5 -35.5 q34.5 -14.5 64.5 -14.5 q35 0 46.5 20.5 q11.5 20.5 11.5 83.5 l220 0 q0 -148 -62.5 -236.5 q-62.5 -88.5 -169.5 -88.5 Z" /><glyph glyph-name="Odieresis" unicode="ö" d="M279.5 1390.5 q176.5 214.5 533.5 214.5 q357 0 533.5 -214.5 q176.5 -214.5 176.5 -601.5 q0 -190 -42.5 -339.5 q-42.5 -149.5 -128.5 -256.5 q-86 -107 -222 -164 q-136 -57 -317 -57 q-181 0 -317 57 q-136 57 -222 164 q-86 107 -128.5 256.5 q-42.5 149.5 -42.5 339.5 q0 387 176.5 601.5 ZM952 1310.5 q-60 28.5 -139 28.5 q-79 0 -139 -28.5 q-60 -28.5 -98 -76.5 q-38 -48 -61.5 -119.5 q-23.5 -71.5 -33 -150 q-9.5 -78.5 -9.5 -175.5 q0 -97 9.5 -175.5 q9.5 -78.5 33 -150 q23.5 -71.5 61.5 -120 q38 -48.5 98 -77 q60 -28.5 139 -28.5 q79 0 139 28.5 q60 28.5 98 77 q38 48.5 61.5 120 q23.5 71.5 33 150 q9.5 78.5 9.5 175.5 q0 97 -9.5 175.5 q-9.5 78.5 -33 150 q-23.5 71.5 -61.5 119.5 q-38 48 -98 76.5 ZM1011.5 1794.5 q-55.5 55.5 -55.5 138.5 q0 83 55.5 138.5 q55.5 55.5 137.5 55.5 q82 0 139 -55.5 q57 -55.5 57 -138.5 q0 -83 -57 -138.5 q-57 -55.5 -139 -55.5 q-82 0 -137.5 55.5 ZM341.5 1794.5 q-55.5 55.5 -55.5 138.5 q0 83 55.5 138.5 q55.5 55.5 137.5 55.5 q82 0 139 -55.5 q57 -55.5 57 -138.5 q0 -83 -57 -138.5 q-57 -55.5 -139 -55.5 q-82 0 -137.5 55.5 Z" /><glyph glyph-name="multiply" unicode="×" d="M208 813 l182 199 l290 -274 l290 274 l182 -199 l-276 -260 l276 -261 l-182 -199 l-290 274 l-290 -274 l-182 199 l276 261 l-276 260 Z" /><glyph glyph-name="Oslash" unicode="ø" d="M930 1310 q-60 29 -139 29 q-79 0 -139 -28.5 q-60 -28.5 -98 -76.5 q-38 -48 -61.5 -119.5 q-23.5 -71.5 -33 -150 q-9.5 -78.5 -9.5 -175.5 q0 -97 9.5 -175.5 q9.5 -78.5 33 -150 q23.5 -71.5 61.5 -119.5 q6 -8 12 -15 l393 966 q-14 8 -29 15 ZM1063 1180 l-374 -928 q46 -14 102 -14 q79 0 139 28.5 q60 28.5 98 77 q38 48.5 61.5 120 q23.5 71.5 33 150 q9.5 78.5 9.5 175.5 q0 97 -9.5 175.5 q-9.5 78.5 -32.5 149.5 q-12 36 -27 66 ZM449 40 q-119 56 -197 153 q-86 107 -128.5 256.5 q-42.5 149.5 -42.5 339.5 q0 387 176.5 601.5 q176.5 214.5 533.5 214.5 q156 0 277 -41 l71 175 l131 -45 l-76 -189 q74 -46 130 -115 q177 -214 177 -601 q0 -190 -42.5 -339.5 q-42.5 -149.5 -128.5 -256.5 q-86 -107 -222 -164 q-136 -57 -317 -57 q-112 0 -207 22 l-65 -162 l-136 45 l66 163 Z" /><glyph glyph-name="Ugrave" unicode="ù" d="M509 719 q3 -183 14 -235.5 q11 -52.5 22 -88 q11 -35.5 26.5 -58.5 q15.5 -23 37.5 -45 q22 -22 51 -35 q61 -28 130 -28 q69 0 110 8.5 q41 8.5 71 27.5 q30 19 52.5 42 q22.5 23 37 59 q14.5 36 24 70.5 q9.5 34.5 13.5 84.5 q8 83 8 198 l0 859 l369 0 l0 -855 q0 -373 -159.5 -566.5 q-159.5 -193.5 -507.5 -193.5 q-353 0 -514 200 q-154 192 -154 560 l0 855 l369 0 l0 -859 ZM806 1727 l-358 542 l312 145 l203 -613 l-157 -74 Z" /><glyph glyph-name="Uacute" unicode="ú" d="M509 719 q3 -183 14 -235.5 q11 -52.5 22 -88 q11 -35.5 26.5 -58.5 q15.5 -23 37.5 -45 q22 -22 51 -35 q61 -28 130 -28 q69 0 110 8.5 q41 8.5 71 27.5 q30 19 52.5 42 q22.5 23 37 59 q14.5 36 24 70.5 q9.5 34.5 13.5 84.5 q8 83 8 198 l0 859 l369 0 l0 -855 q0 -373 -159.5 -566.5 q-159.5 -193.5 -507.5 -193.5 q-353 0 -514 200 q-154 192 -154 560 l0 855 l369 0 l0 -859 ZM806 1727 l-157 74 l203 613 l312 -145 l-358 -542 Z" /><glyph glyph-name="Ucircumflex" unicode="û" d="M509 719 q3 -183 14 -235.5 q11 -52.5 22 -88 q11 -35.5 26.5 -58.5 q15.5 -23 37.5 -45 q22 -22 51 -35 q61 -28 130 -28 q69 0 110 8.5 q41 8.5 71 27.5 q30 19 52.5 42 q22.5 23 37 59 q14.5 36 24 70.5 q9.5 34.5 13.5 84.5 q8 83 8 198 l0 859 l369 0 l0 -855 q0 -373 -159.5 -566.5 q-159.5 -193.5 -507.5 -193.5 q-353 0 -514 200 q-154 192 -154 560 l0 855 l369 0 l0 -859 ZM679 2346 l254 0 l258 -619 l-274 0 l-112 384 l-112 -384 l-272 0 l258 619 Z" /><glyph glyph-name="Udieresis" unicode="ü" d="M509 719 q3 -183 14 -235.5 q11 -52.5 22 -88 q11 -35.5 26.5 -58.5 q15.5 -23 37.5 -45 q22 -22 51 -35 q61 -28 130 -28 q69 0 110 8.5 q41 8.5 71 27.5 q30 19 52.5 42 q22.5 23 37 59 q14.5 36 24 70.5 q9.5 34.5 13.5 84.5 q8 83 8 198 l0 859 l369 0 l0 -855 q0 -373 -159.5 -566.5 q-159.5 -193.5 -507.5 -193.5 q-353 0 -514 200 q-154 192 -154 560 l0 855 l369 0 l0 -859 ZM1005.5 1794.5 q-55.5 55.5 -55.5 138.5 q0 83 55.5 138.5 q55.5 55.5 137.5 55.5 q82 0 139 -55.5 q57 -55.5 57 -138.5 q0 -83 -57 -138.5 q-57 -55.5 -139 -55.5 q-82 0 -137.5 55.5 ZM335.5 1794.5 q-55.5 55.5 -55.5 138.5 q0 83 55.5 138.5 q55.5 55.5 137.5 55.5 q82 0 139 -55.5 q57 -55.5 57 -138.5 q0 -83 -57 -138.5 q-57 -55.5 -139 -55.5 q-82 0 -137.5 55.5 Z" /><glyph glyph-name="Yacute" unicode="ý" d="M616 905 l310 673 l374 0 l-510 -1060 l0 -518 l-348 0 l0 518 l-504 1060 l368 0 l310 -673 ZM639 1727 l-157 74 l203 613 l312 -145 l-358 -542 Z" /><glyph glyph-name="Thorn" unicode="þ" d="M724 165 q-181 0 -273 126 l0 -510 l-351 0 l0 1797 l332 0 l1 -377 q45 77 127.5 117.5 q82.5 40.5 175.5 40.5 q119 0 211 -45.5 q92 -45.5 149 -127.5 q57 -82 86 -193 q29 -111 29 -247 q0 -279 -134 -430 q-134 -151 -353 -151 ZM858 770 q0 353 -202 353 q-58 0 -101 -13 q-43 -13 -62 -26.5 q-19 -13.5 -42 -37.5 l0 -551 q98 -96 236 -96 q38 0 67.5 15 q29.5 15 47.5 44 q18 29 29.5 61.5 q11.5 32.5 17 79 q5.5 46.5 7.5 84 q2 37.5 2 87.5 Z" /><glyph glyph-name="germandbls" unicode="ß" d="M660 689 q0 0 -2 218 l57 0 q147 0 226.5 52 q79.5 52 79.5 176 q0 47 -9 79 q-9 32 -34.5 61.5 q-25.5 29.5 -78.5 44 q-53 14.5 -135 14.5 q-148 0 -201 -80 q-53 -80 -53 -274 l0 -980 l-371 0 l0 980 q0 292 148 445.5 q148 153.5 477 153.5 q103 0 188.5 -15 q85.5 -15 144.5 -40 q59 -25 104 -60.5 q45 -35.5 71.5 -72.5 q26.5 -37 43 -80.5 q16.5 -43.5 22.5 -79.5 q6 -36 6 -74 q0 -63 -18.5 -117 q-18.5 -54 -57 -100.5 q-38.5 -46.5 -104.5 -78 q-66 -31.5 -155 -42.5 q494 -50 494 -464 l0 -3 q0 -111 -48 -203.5 q-48 -92.5 -130.5 -155.5 q-82.5 -63 -194.5 -106.5 q-112 -43.5 -237.5 -63.5 q-125.5 -20 -262.5 -20 l-1 281 q119 9 207 26 q88 17 145.5 40.5 q57.5 23.5 92.5 57 q35 33.5 49 71 q14 37.5 14 85.5 q0 325 -477 325 Z" /><glyph glyph-name="agrave" unicode="à" d="M683 547 q-129 0 -184 -36 q-55 -36 -55 -121 q0 -85 39 -129 q39 -44 109 -44 q110 0 187 93 l0 229 q2 2 -38.5 5 q-40.5 3 -57.5 3 ZM624 954 q-201 0 -373 -81 l-83 209 q184 114 468 114 q326 0 430 -208 q61 -120 61 -314 l0 -674 l-271 0 l-48 150 q-51 -88 -123 -132 q-72 -44 -184 -44 q-193 0 -300 100.5 q-107 100.5 -107 287 q0 186.5 140 277 q140 90.5 392 90.5 q88 0 153 -12 q0 116 -10 142 q-21 57 -54.5 76 q-33.5 19 -90.5 19 ZM610 1308 l-358 542 l312 145 l203 -613 l-157 -74 Z" /><glyph glyph-name="aacute" unicode="á" d="M683 547 q-129 0 -184 -36 q-55 -36 -55 -121 q0 -85 39 -129 q39 -44 109 -44 q110 0 187 93 l0 229 q2 2 -38.5 5 q-40.5 3 -57.5 3 ZM624 954 q-201 0 -373 -81 l-83 209 q184 114 468 114 q326 0 430 -208 q61 -120 61 -314 l0 -674 l-271 0 l-48 150 q-51 -88 -123 -132 q-72 -44 -184 -44 q-193 0 -300 100.5 q-107 100.5 -107 287 q0 186.5 140 277 q140 90.5 392 90.5 q88 0 153 -12 q0 116 -10 142 q-21 57 -54.5 76 q-33.5 19 -90.5 19 ZM610 1308 l-157 74 l203 613 l312 -145 l-358 -542 Z" /><glyph glyph-name="acircumflex" unicode="â" d="M683 547 q-129 0 -184 -36 q-55 -36 -55 -121 q0 -85 39 -129 q39 -44 109 -44 q110 0 187 93 l0 229 q2 2 -38.5 5 q-40.5 3 -57.5 3 ZM624 954 q-201 0 -373 -81 l-83 209 q184 114 468 114 q326 0 430 -208 q61 -120 61 -314 l0 -674 l-271 0 l-48 150 q-51 -88 -123 -132 q-72 -44 -184 -44 q-193 0 -300 100.5 q-107 100.5 -107 287 q0 186.5 140 277 q140 90.5 392 90.5 q88 0 153 -12 q0 116 -10 142 q-21 57 -54.5 76 q-33.5 19 -90.5 19 ZM513 1927 l254 0 l258 -619 l-274 0 l-112 384 l-112 -384 l-272 0 l258 619 Z" /><glyph glyph-name="atilde" unicode="ã" d="M683 547 q-129 0 -184 -36 q-55 -36 -55 -121 q0 -85 39 -129 q39 -44 109 -44 q110 0 187 93 l0 229 q2 2 -38.5 5 q-40.5 3 -57.5 3 ZM624 954 q-201 0 -373 -81 l-83 209 q184 114 468 114 q326 0 430 -208 q61 -120 61 -314 l0 -674 l-271 0 l-48 150 q-51 -88 -123 -132 q-72 -44 -184 -44 q-193 0 -300 100.5 q-107 100.5 -107 287 q0 186.5 140 277 q140 90.5 392 90.5 q88 0 153 -12 q0 116 -10 142 q-21 57 -54.5 76 q-33.5 19 -90.5 19 ZM860 1308 q-47 0 -95.5 15.5 q-48.5 15.5 -88.5 38.5 l-76 44 q-36 22 -68.5 37.5 q-32.5 15.5 -55.5 15.5 q-31 0 -45.5 -28.5 q-14.5 -28.5 -14.5 -96.5 l-208 0 q0 166 57.5 252 q57.5 86 172.5 86 q48 0 94 -14.5 q46 -14.5 81 -35.5 l69 -43 q33 -21 67.5 -35.5 q34.5 -14.5 64.5 -14.5 q35 0 46.5 20.5 q11.5 20.5 11.5 83.5 l220 0 q0 -148 -62.5 -236.5 q-62.5 -88.5 -169.5 -88.5 Z" /><glyph glyph-name="adieresis" unicode="ä" d="M683 547 q-129 0 -184 -36 q-55 -36 -55 -121 q0 -85 39 -129 q39 -44 109 -44 q110 0 187 93 l0 229 q2 2 -38.5 5 q-40.5 3 -57.5 3 ZM624 954 q-201 0 -373 -81 l-83 209 q184 114 468 114 q326 0 430 -208 q61 -120 61 -314 l0 -674 l-271 0 l-48 150 q-51 -88 -123 -132 q-72 -44 -184 -44 q-193 0 -300 100.5 q-107 100.5 -107 287 q0 186.5 140 277 q140 90.5 392 90.5 q88 0 153 -12 q0 116 -10 142 q-21 57 -54.5 76 q-33.5 19 -90.5 19 ZM840.5 1375.5 q-55.5 55.5 -55.5 138.5 q0 83 55.5 138.5 q55.5 55.5 137.5 55.5 q82 0 139 -55.5 q57 -55.5 57 -138.5 q0 -83 -57 -138.5 q-57 -55.5 -139 -55.5 q-82 0 -137.5 55.5 ZM170.5 1375.5 q-55.5 55.5 -55.5 138.5 q0 83 55.5 138.5 q55.5 55.5 137.5 55.5 q82 0 139 -55.5 q57 -55.5 57 -138.5 q0 -83 -57 -138.5 q-57 -55.5 -139 -55.5 q-82 0 -137.5 55.5 Z" /><glyph glyph-name="aring" unicode="å" d="M683 547 q-129 0 -184 -36 q-55 -36 -55 -121 q0 -85 39 -129 q39 -44 109 -44 q110 0 187 93 l0 229 q2 2 -38.5 5 q-40.5 3 -57.5 3 ZM624 954 q-201 0 -373 -81 l-83 209 q184 114 468 114 q326 0 430 -208 q61 -120 61 -314 l0 -674 l-271 0 l-48 150 q-51 -88 -123 -132 q-72 -44 -184 -44 q-193 0 -300 100.5 q-107 100.5 -107 287 q0 186.5 140 277 q140 90.5 392 90.5 q88 0 153 -12 q0 116 -10 142 q-21 57 -54.5 76 q-33.5 19 -90.5 19 ZM523.5 1773.5 q-53.5 -50.5 -53.5 -126 q0 -75.5 53.5 -126 q53.5 -50.5 127 -50.5 q73.5 0 126.5 50.5 q53 50.5 53 126 q0 75.5 -53 126 q-53 50.5 -126.5 50.5 q-73.5 0 -127 -50.5 ZM336.5 1473 q-51.5 79 -51.5 174.5 q0 95.5 51.5 174.5 q51.5 79 135 122 q83.5 43 179.5 43 q96 0 179 -43 q83 -43 134 -121.5 q51 -78.5 51 -174.5 q0 -96 -51 -175 q-51 -79 -134 -122 q-83 -43 -179 -43 q-96 0 -179.5 43 q-83.5 43 -135 122 Z" /><glyph glyph-name="ae" unicode="æ" d="M400 385 q0 -79 42.5 -123.5 q42.5 -44.5 113.5 -44.5 q56 0 104.5 25 q48.5 25 96.5 68 l0 229 q-62 8 -110 8 q-130 0 -188.5 -36.5 q-58.5 -36.5 -58.5 -125.5 ZM1635 314 l66 -234 q-186 -95 -408 -96 q-151 -1 -243.5 50.5 q-92.5 51.5 -151.5 165.5 q-36 -61 -86.5 -105 q-50.5 -44 -108 -68 q-57.5 -24 -114 -34.5 q-56.5 -10.5 -118.5 -10.5 q-192 0 -295.5 100 q-103.5 100 -103.5 291 q0 85 29 148.5 q29 63.5 77 102.5 q48 39 119 63 q71 24 144 33 q73 9 163 9 q89 0 153 -12 q0 32 -1 52.5 q-1 20.5 -4.5 46 q-3.5 25.5 -10 41.5 q-6.5 16 -18 32.5 q-11.5 16.5 -28 25.5 q-16.5 9 -41 15 q-24.5 6 -56.5 6 q-48 0 -108 -8.5 q-60 -8.5 -106.5 -19.5 q-46.5 -11 -95.5 -25 l-65 -19 l-26 -9 l-48 218 q80 51 210 82 q130 31 251 31 q250 0 341 -148 q51 76 141 112 q90 36 198 36 q222 0 345.5 -143 q123.5 -143 123.5 -377 l0 -164 l-674 0 l0 -3 q4 -122 72.5 -200 q68.5 -78 191.5 -77 q161 1 286 92 ZM1475 676 q1 125 -45 199.5 q-46 74.5 -146 74.5 q-48 0 -85.5 -20.5 q-37.5 -20.5 -61 -55.5 q-23.5 -35 -36.5 -78.5 q-13 -43.5 -16 -93.5 l0 -26 l390 0 Z" /><glyph glyph-name="ccedilla" unicode="ç" d="M511 -625 l0 137 l8 -4 q9 -4 26 -10.5 q17 -6.5 37 -13 q20 -6.5 47.5 -11 q27.5 -4.5 53.5 -4.5 q35 0 57.5 3.5 q22.5 3.5 42.5 15 q20 11.5 29 35.5 q9 24 9 62 q0 162 -260 162 l18 235 q-76 9 -136 33 q-102 40 -178.5 114 q-76.5 74 -120.5 189 q-44 115 -44 253.5 q0 138.5 31 237 q31 98.5 85 168.5 q54 70 126 120 q143 99 322 99 q133 0 220.5 -25.5 q87.5 -25.5 180.5 -74.5 l-65 -225 q-27 26 -111 57.5 q-84 31.5 -165 31.5 q-149 0 -210.5 -86.5 q-61.5 -86.5 -61.5 -287.5 q0 -375 299 -375 q111 0 235 80 q13 8 13 9 l65 -225 q-60 -31 -106 -50 q-121 -49 -261 -50 l-16 -140 q27 0 59 -5 q32 -5 70.5 -15 q38.5 -10 73.5 -29 q35 -19 65 -44.5 q30 -25.5 47.5 -64.5 q17.5 -39 18.5 -86 q0 -132 -74 -201 q-74 -69 -216 -69 q-113 0 -207 50 l-7 4 Z" /><glyph glyph-name="egrave" unicode="è" d="M867 676 q3 284 -201 284 q-68 0 -117 -40 q-93 -77 -93 -244 l411 0 ZM1027 304 l66 -234 q-186 -95 -389 -96 q-390 0 -540 284 q-71 137 -67 308 q4 171 48 283 q44 112 121 188 q160 159 406 159 q149 0 258 -66 q223 -136 221 -464 l0 -164 l-694 0 q4 -132 77 -212 q73 -79 197 -78 q171 1 296 92 ZM653 1308 l-358 542 l312 145 l203 -613 l-157 -74 Z" /><glyph glyph-name="eacute" unicode="é" d="M867 676 q3 284 -201 284 q-68 0 -117 -40 q-93 -77 -93 -244 l411 0 ZM1027 304 l66 -234 q-186 -95 -389 -96 q-390 0 -540 284 q-71 137 -67 308 q4 171 48 283 q44 112 121 188 q160 159 406 159 q149 0 258 -66 q223 -136 221 -464 l0 -164 l-694 0 q4 -132 77 -212 q73 -79 197 -78 q171 1 296 92 ZM653 1308 l-157 74 l203 613 l312 -145 l-358 -542 Z" /><glyph glyph-name="ecircumflex" unicode="ê" d="M867 676 q3 284 -201 284 q-68 0 -117 -40 q-93 -77 -93 -244 l411 0 ZM1027 304 l66 -234 q-186 -95 -389 -96 q-390 0 -540 284 q-71 137 -67 308 q4 171 48 283 q44 112 121 188 q160 159 406 159 q149 0 258 -66 q223 -136 221 -464 l0 -164 l-694 0 q4 -132 77 -212 q73 -79 197 -78 q171 1 296 92 ZM546 1927 l254 0 l258 -619 l-274 0 l-112 384 l-112 -384 l-272 0 l258 619 Z" /><glyph glyph-name="edieresis" unicode="ë" d="M867 676 q3 284 -201 284 q-68 0 -117 -40 q-93 -77 -93 -244 l411 0 ZM1027 304 l66 -234 q-186 -95 -389 -96 q-390 0 -540 284 q-71 137 -67 308 q4 171 48 283 q44 112 121 188 q160 159 406 159 q149 0 258 -66 q223 -136 221 -464 l0 -164 l-694 0 q4 -132 77 -212 q73 -79 197 -78 q171 1 296 92 ZM853.5 1375.5 q-55.5 55.5 -55.5 138.5 q0 83 55.5 138.5 q55.5 55.5 137.5 55.5 q82 0 139 -55.5 q57 -55.5 57 -138.5 q0 -83 -57 -138.5 q-57 -55.5 -139 -55.5 q-82 0 -137.5 55.5 ZM183.5 1375.5 q-55.5 55.5 -55.5 138.5 q0 83 55.5 138.5 q55.5 55.5 137.5 55.5 q82 0 139 -55.5 q57 -55.5 57 -138.5 q0 -83 -57 -138.5 q-57 -55.5 -139 -55.5 q-82 0 -137.5 55.5 Z" /><glyph glyph-name="igrave" unicode="ì" d="M530 0 l-350 0 l0 1160 l350 0 l0 -1160 ZM342 1308 l-358 542 l312 145 l203 -613 l-157 -74 Z" /><glyph glyph-name="iacute" unicode="í" d="M347 1308 l-157 74 l203 613 l312 -145 l-358 -542 ZM520 0 l-350 0 l0 1160 l350 0 l0 -1160 Z" /><glyph glyph-name="icircumflex" unicode="î" d="M204 1927 l254 0 l258 -619 l-274 0 l-112 384 l-112 -384 l-272 0 l258 619 ZM500 0 l-350 0 l0 1160 l350 0 l0 -1160 Z" /><glyph glyph-name="idieresis" unicode="ï" d="M510 0 l-350 0 l0 1160 l350 0 l0 -1160 ZM-137.5 1375.5 q-53.5 55.5 -53.5 138.5 q0 83 53.5 138.5 q53.5 55.5 135.5 55.5 q82 0 135.5 -55.5 q53.5 -55.5 53.5 -138.5 q0 -83 -53.5 -138.5 q-53.5 -55.5 -135.5 -55.5 q-82 0 -135.5 55.5 ZM532.5 1375.5 q-53.5 55.5 -53.5 138.5 q0 83 53.5 138.5 q53.5 55.5 135.5 55.5 q82 0 135.5 -55.5 q53.5 -55.5 53.5 -138.5 q0 -83 -53.5 -138.5 q-53.5 -55.5 -135.5 -55.5 q-82 0 -135.5 55.5 Z" /><glyph glyph-name="eth" unicode="ð" d="M428 586 q0 -72 9 -132.5 q9 -60.5 30.5 -115.5 q21.5 -55 63 -86.5 q41.5 -31.5 99.5 -31.5 q54 0 95 28.5 q41 28.5 64 77.5 q23 49 34 106.5 q11 57.5 11 122.5 l0 301 q-98 96 -235 96 q-46 0 -78.5 -22.5 q-32.5 -22.5 -50 -56 q-17.5 -33.5 -27.5 -86 q-10 -52.5 -12.5 -96.5 q-2.5 -44 -2.5 -105 ZM1184 612 q0 -163 -41.5 -284 q-41.5 -121 -120.5 -196 q-79 -75 -188 -111.5 q-109 -36.5 -249 -36.5 q-132 0 -231.5 47.5 q-99.5 47.5 -158.5 132 q-59 84.5 -88 190.5 q-29 106 -29 232 q0 177 52 311.5 q52 134.5 154 211.5 q102 77 241 77 q207 0 309 -140 q-12 74 -86 180 q-40 58 -89 112 l-234 -75 l-42 150 l152 49 q-80 71 -154 113 l150 177 q74 -46 130 -85 q56 -39 127 -101 l19 -17 l294 95 l42 -150 l-216 -70 q45 -57 92 -134 q54 -88 88 -185 q34 -97 55.5 -224 q21.5 -127 21.5 -269 Z" /><glyph glyph-name="ntilde" unicode="ñ" d="M516 1011 q90 185 305.5 185 q215.5 0 313.5 -117.5 q98 -117.5 98 -357.5 l0 -721 l-351 0 l0 747 q0 117 -35.5 164.5 q-35.5 47.5 -111 50 q-75.5 2.5 -126 -29.5 q-50.5 -32 -75.5 -76 l0 -856 l-351 0 l0 1160 l266 0 l67 -149 ZM919 1308 q-47 0 -95 16 q-50 15 -89 38 l-76 44 q-36 22 -68.5 37.5 q-32.5 15.5 -55.5 15.5 q-31 0 -45.5 -28.5 q-14.5 -28.5 -14.5 -96.5 l-208 0 q0 166 57.5 252 q57.5 86 172.5 86 q48 0 94 -14 q49 -16 81 -36 l69 -43 q35 -22 67 -35 q35 -15 65 -15 q35 0 46.5 20.5 q11.5 20.5 11.5 83.5 l220 0 q0 -148 -62.5 -236.5 q-62.5 -88.5 -169.5 -88.5 Z" /><glyph glyph-name="ograve" unicode="ò" d="M474 299 q54 -91 166 -91 q112 0 166 91 q54 91 54 285 q0 194 -54 285 q-54 91 -166 91 q-112 0 -166 -91 q-54 -91 -54 -285 q0 -194 54 -285 ZM218 1034.5 q148 161.5 421 161.5 q273 0 421 -161.5 q148 -161.5 148 -452.5 q0 -289 -147 -448.5 q-147 -159.5 -421 -159.5 q-274 0 -422 159.5 q-148 159.5 -148 448.5 q0 291 148 452.5 ZM670 1308 l-358 542 l312 145 l203 -613 l-157 -74 Z" /><glyph glyph-name="oacute" unicode="ó" d="M474 299 q54 -91 166 -91 q112 0 166 91 q54 91 54 285 q0 194 -54 285 q-54 91 -166 91 q-112 0 -166 -91 q-54 -91 -54 -285 q0 -194 54 -285 ZM218 1034.5 q148 161.5 421 161.5 q273 0 421 -161.5 q148 -161.5 148 -452.5 q0 -289 -147 -448.5 q-147 -159.5 -421 -159.5 q-274 0 -422 159.5 q-148 159.5 -148 448.5 q0 291 148 452.5 ZM670 1308 l-157 74 l203 613 l312 -145 l-358 -542 Z" /><glyph glyph-name="ocircumflex" unicode="ô" d="M474 299 q54 -91 166 -91 q112 0 166 91 q54 91 54 285 q0 194 -54 285 q-54 91 -166 91 q-112 0 -166 -91 q-54 -91 -54 -285 q0 -194 54 -285 ZM218 1034.5 q148 161.5 421 161.5 q273 0 421 -161.5 q148 -161.5 148 -452.5 q0 -289 -147 -448.5 q-147 -159.5 -421 -159.5 q-274 0 -422 159.5 q-148 159.5 -148 448.5 q0 291 148 452.5 ZM523 1927 l254 0 l258 -619 l-274 0 l-112 384 l-112 -384 l-272 0 l258 619 Z" /><glyph glyph-name="otilde" unicode="õ" d="M474 299 q54 -91 166 -91 q112 0 166 91 q54 91 54 285 q0 194 -54 285 q-54 91 -166 91 q-112 0 -166 -91 q-54 -91 -54 -285 q0 -194 54 -285 ZM218 1034.5 q148 161.5 421 161.5 q273 0 421 -161.5 q148 -161.5 148 -452.5 q0 -289 -147 -448.5 q-147 -159.5 -421 -159.5 q-274 0 -422 159.5 q-148 159.5 -148 448.5 q0 291 148 452.5 ZM860 1308 q-47 0 -96 16 q-49 15 -88 38 l-76 44 q-36 22 -68.5 37.5 q-32.5 15.5 -55.5 15.5 q-31 0 -45.5 -28.5 q-14.5 -28.5 -14.5 -96.5 l-208 0 q0 166 57.5 252 q57.5 86 172.5 86 q48 0 94 -14 q49 -16 81 -36 l69 -43 q35 -22 68 -35 q34 -15 64 -15 q35 0 46.5 20.5 q11.5 20.5 11.5 83.5 l220 0 q0 -148 -62.5 -236.5 q-62.5 -88.5 -169.5 -88.5 Z" /><glyph glyph-name="odieresis" unicode="ö" d="M474 299 q54 -91 166 -91 q112 0 166 91 q54 91 54 285 q0 194 -54 285 q-54 91 -166 91 q-112 0 -166 -91 q-54 -91 -54 -285 q0 -194 54 -285 ZM218 1034.5 q148 161.5 421 161.5 q273 0 421 -161.5 q148 -161.5 148 -452.5 q0 -289 -147 -448.5 q-147 -159.5 -421 -159.5 q-274 0 -422 159.5 q-148 159.5 -148 448.5 q0 291 148 452.5 ZM842.5 1375.5 q-55.5 55.5 -55.5 138.5 q0 83 55.5 138.5 q55.5 55.5 137.5 55.5 q82 0 139 -55.5 q57 -55.5 57 -138.5 q0 -83 -57 -138.5 q-57 -55.5 -139 -55.5 q-82 0 -137.5 55.5 ZM172.5 1375.5 q-55.5 55.5 -55.5 138.5 q0 83 55.5 138.5 q55.5 55.5 137.5 55.5 q82 0 139 -55.5 q57 -55.5 57 -138.5 q0 -83 -57 -138.5 q-57 -55.5 -139 -55.5 q-82 0 -137.5 55.5 Z" /><glyph glyph-name="divide" unicode="÷" d="M1098 593 l-1004 0 l0 262 l1004 0 l0 -262 ZM465.5 167.5 q-53.5 55.5 -53.5 138.5 q0 83 53.5 138.5 q53.5 55.5 135.5 55.5 q82 0 135.5 -55.5 q53.5 -55.5 53.5 -138.5 q0 -83 -53.5 -138.5 q-53.5 -55.5 -135.5 -55.5 q-82 0 -135.5 55.5 ZM462.5 1005.5 q-53.5 55.5 -53.5 138.5 q0 83 53.5 138.5 q53.5 55.5 135.5 55.5 q82 0 135.5 -55.5 q53.5 -55.5 53.5 -138.5 q0 -83 -53.5 -138.5 q-53.5 -55.5 -135.5 -55.5 q-82 0 -135.5 55.5 Z" /><glyph glyph-name="oslash" unicode="ø" d="M647 188 q149 0 223 135 q55 100 55 261 q0 56 -6.5 104 q-6.5 48 -16.5 80.5 q-10 32.5 -22 58.5 q-12 26 -24.5 40.5 q-12.5 14.5 -22.5 24.5 q-10 10 -16 14 l-6 3 l-237 -714 q27 -7 73 -7 ZM507 -4 l-58 -173 l-106 36 l57 167 q-157 62 -239.5 205.5 q-82.5 143.5 -82.5 350.5 q0 281 148 442.5 q148 161.5 421 161.5 q69 0 132 -11 l64 189 l104 -36 l-61 -182 q161 -61 245.5 -207 q84.5 -146 84.5 -357 q0 -279 -147.5 -438.5 q-147.5 -159.5 -421.5 -159.5 q-74 0 -140 12 ZM476 261 l240 712 q-29 7 -69 7 q-160 0 -227 -157 l-1 -1 l0 -1 l0 -1 l-1 0 l0 -1 l0 -1 l-1 -1 l0 -1 l-1 -1 l0 -1 l0 -1 l-1 -1 l0 -1 l0 -1 l-1 -1 l0 -1 l-1 -1 l0 -1 l0 -1 l-1 0 l0 -1 l0 -1 l0 -1 l-1 -1 l0 -1 l-1 -1 l0 -1 l0 -1 l0 -1 l-1 0 l0 -1 l0 -1 l-1 -1 l0 -1 l0 -1 l-1 -1 l0 -1 l0 -1 l-1 -1 l0 -1 l0 -1 l0 -1 l-1 -1 l0 -1 l0 -1 l-1 -1 l0 -1 l0 -1 l-1 -1 l0 -1 l0 -1 l0 -1 l-1 -1 l0 -1 l0 -1 l-1 -1 l0 -1 l0 -1 l-1 -1 l0 -1 l0 -1 l0 -1 l0 -1 l-1 -1 l0 -1 l0 -1 l-1 -1 l0 -1 l0 -1 l0 -1 l-1 -1 l0 -1 l0 -1 l0 -1 l0 -1 l-1 -1 l0 -1 l0 -1 l-1 -1 l0 -1 l0 -1 l0 -1 l0 -1 l-1 -1 l0 -1 l0 -1 l0 -1 l0 -1 l-1 -1 l0 -1 l0 -1 l0 -1 l-1 -1 l0 -1 l0 -1 l0 -1 l0 -1 l0 -1 l-1 0 l0 -1 l0 -1 l0 -1 l0 -1 l0 -1 l-1 -1 l0 -1 l0 -1 l0 -1 l0 -1 l-1 -1 l0 -1 l0 -1 l0 -1 l0 -1 l0 -1 l0 -1 l-1 0 l0 -1 l0 -1 l0 -1 l0 -1 l0 -1 l0 -1 l-1 -1 l0 -1 l0 -1 l0 -1 l0 -1 l0 -1 l0 -1 l-1 -1 l0 -1 l0 -1 l0 -1 l0 -1 l0 -1 l0 -1 l0 -1 l-1 0 l0 -1 l0 -1 l0 -1 l0 -1 l0 -1 l-6 -80 l0 -21 q0 -65 10 -122 q10 -57 24 -92.5 q14 -35.5 28.5 -61 q14.5 -25.5 24 -36.5 q9.5 -11 10.5 -11 Z" /><glyph glyph-name="ugrave" unicode="ù" d="M546 423 q-1 -99 34 -157 q33 -54 116 -58 q107 8 186 96 l0 856 l351 0 l0 -1160 l-247 0 l-77 177 q-43 -110 -92 -147 q-71 -56 -189 -56 q-218 0 -323 119 q-105 119 -105 356 l0 711 l346 0 l0 -737 ZM640 1308 l-358 542 l312 145 l203 -613 l-157 -74 Z" /><glyph glyph-name="uacute" unicode="ú" d="M546 423 q-1 -99 34 -157 q33 -54 116 -58 q107 8 186 96 l0 856 l351 0 l0 -1160 l-247 0 l-77 177 q-43 -110 -92 -147 q-71 -56 -189 -56 q-218 0 -323 119 q-105 119 -105 356 l0 711 l346 0 l0 -737 ZM640 1308 l-157 74 l203 613 l312 -145 l-358 -542 Z" /><glyph glyph-name="ucircumflex" unicode="û" d="M546 423 q-1 -99 34 -157 q33 -54 116 -58 q107 8 186 96 l0 856 l351 0 l0 -1160 l-247 0 l-77 177 q-43 -110 -92 -147 q-71 -56 -189 -56 q-218 0 -323 119 q-105 119 -105 356 l0 711 l346 0 l0 -737 ZM593 1927 l254 0 l258 -619 l-274 0 l-112 384 l-112 -384 l-272 0 l258 619 Z" /><glyph glyph-name="udieresis" unicode="ü" d="M546 423 q-1 -99 34 -157 q33 -54 116 -58 q107 8 186 96 l0 856 l351 0 l0 -1160 l-247 0 l-77 177 q-43 -110 -92 -147 q-71 -56 -189 -56 q-218 0 -323 119 q-105 119 -105 356 l0 711 l346 0 l0 -737 ZM917.5 1375.5 q-55.5 55.5 -55.5 138.5 q0 83 55.5 138.5 q55.5 55.5 137.5 55.5 q82 0 139 -55.5 q57 -55.5 57 -138.5 q0 -83 -57 -138.5 q-57 -55.5 -139 -55.5 q-82 0 -137.5 55.5 ZM247.5 1375.5 q-55.5 55.5 -55.5 138.5 q0 83 55.5 138.5 q55.5 55.5 137.5 55.5 q82 0 139 -55.5 q57 -55.5 57 -138.5 q0 -83 -57 -138.5 q-57 -55.5 -139 -55.5 q-82 0 -137.5 55.5 Z" /><glyph glyph-name="yacute" unicode="ý" d="M506 43 l-482 1117 l358 0 l276 -786 l192 786 l354 0 l-396 -1192 q-72 -222 -204 -328 q-132 -106 -352 -108 l-98 237 q96 7 157 24.5 q61 17.5 99 54.5 q38 37 57 79.5 q19 42.5 39 115.5 ZM586 1308 l-157 74 l203 613 l312 -145 l-358 -542 Z" /><glyph glyph-name="thorn" unicode="þ" d="M747 -16 q-181 0 -273 126 l0 -516 l-351 0 l0 1984 l347 0 l0 -537 q39 68 117 102.5 q78 34.5 172 34.5 q119 0 211 -45.5 q92 -45.5 149 -127.5 q57 -82 86 -193 q29 -111 29 -247 q0 -279 -134 -430 q-134 -151 -353 -151 ZM881 589 q0 353 -202 353 q-58 0 -101 -13 q-43 -13 -62 -26.5 q-19 -13.5 -42 -37.5 l0 -551 q98 -96 236 -96 q38 0 67.5 15 q29.5 15 47.5 44 q18 29 29.5 61.5 q11.5 32.5 17 79 q5.5 46.5 7.5 84 q2 37.5 2 87.5 Z" /><glyph glyph-name="ydieresis" unicode="ÿ" d="M506 43 l-482 1117 l358 0 l276 -786 l192 786 l354 0 l-396 -1192 q-72 -222 -204 -328 q-132 -106 -352 -108 l-98 237 q96 7 157 24.5 q61 17.5 99 54.5 q38 37 57 79.5 q19 42.5 39 115.5 ZM817.5 1375.5 q-55.5 55.5 -55.5 138.5 q0 83 55.5 138.5 q55.5 55.5 137.5 55.5 q82 0 139 -55.5 q57 -55.5 57 -138.5 q0 -83 -57 -138.5 q-57 -55.5 -139 -55.5 q-82 0 -137.5 55.5 ZM147.5 1375.5 q-55.5 55.5 -55.5 138.5 q0 83 55.5 138.5 q55.5 55.5 137.5 55.5 q82 0 139 -55.5 q57 -55.5 57 -138.5 q0 -83 -57 -138.5 q-57 -55.5 -139 -55.5 q-82 0 -137.5 55.5 Z" /><glyph glyph-name="Ydieresis" unicode="&#x178;" d="M616 905 l310 673 l374 0 l-510 -1060 l0 -518 l-348 0 l0 518 l-504 1060 l368 0 l310 -673 ZM815.5 1782.5 q-55.5 55.5 -55.5 138.5 q0 83 55.5 138.5 q55.5 55.5 137.5 55.5 q82 0 139 -55.5 q57 -55.5 57 -138.5 q0 -83 -57 -138.5 q-57 -55.5 -139 -55.5 q-82 0 -137.5 55.5 ZM145.5 1782.5 q-55.5 55.5 -55.5 138.5 q0 83 55.5 138.5 q55.5 55.5 137.5 55.5 q82 0 139 -55.5 q57 -55.5 57 -138.5 q0 -83 -57 -138.5 q-57 -55.5 -139 -55.5 q-82 0 -137.5 55.5 Z" /><glyph glyph-name="circumflex" unicode="&#x2c6;" d="M487 1182 l254 0 l258 -619 l-274 0 l-112 384 l-112 -384 l-272 0 l258 619 Z" /><glyph glyph-name="uni02C9" unicode="&#x2c9;" d="M842 98 l-682 0 l0 127 l682 0 l0 -127 Z" /><glyph glyph-name="ring" unicode="&#x2da;" d="M337.5 1442.5 q-53.5 -50.5 -53.5 -126 q0 -75.5 53.5 -126 q53.5 -50.5 127 -50.5 q73.5 0 126.5 50.5 q53 50.5 53 126 q0 75.5 -53 126 q-53 50.5 -126.5 50.5 q-73.5 0 -127 -50.5 ZM150.5 1142 q-51.5 79 -51.5 174.5 q0 95.5 51.5 174.5 q51.5 79 135 122 q83.5 43 179.5 43 q96 0 179 -43 q83 -43 134 -121.5 q51 -78.5 51 -174.5 q0 -96 -51 -175 q-51 -79 -134 -122 q-83 -43 -179 -43 q-96 0 -179.5 43 q-83.5 43 -135 122 Z" /><glyph glyph-name="tilde" unicode="&#x2dc;" d="M841 122 q-47 0 -95.5 15.5 q-48.5 15.5 -88.5 38.5 l-76 44 q-36 22 -68.5 37.5 q-32.5 15.5 -55.5 15.5 q-31 0 -45.5 -28.5 q-14.5 -28.5 -14.5 -96.5 l-208 0 q0 166 57.5 252 q57.5 86 172.5 86 q48 0 94 -14.5 q46 -14.5 81 -35.5 l69 -43 q33 -21 67.5 -35.5 q34.5 -14.5 64.5 -14.5 q35 0 46.5 20.5 q11.5 20.5 11.5 83.5 l220 0 q0 -148 -62.5 -236.5 q-62.5 -88.5 -169.5 -88.5 Z" /><glyph glyph-name="mu" unicode="&#x3bc;" d="M620 -15 q-28 0 -60.5 7.5 q-32.5 7.5 -51 14.5 q-18.5 7 -19.5 9 l0 -504 l-350 60 l0 1589 l350 0 l0 -884 l6 -3 q6 -3 18 -8.5 q12 -5.5 27.5 -12 q15.5 -6.5 34.5 -13 q19 -6.5 37.5 -11.5 q18.5 -5 39 -8 q20.5 -3 36.5 -2 q124 6 186 77 l0 865 l352 0 l0 -1160 l-248 0 l-78 167 q-9 -32 -29.5 -62.5 q-20.5 -30.5 -53.5 -58.5 q-33 -28 -84 -45 q-51 -17 -113 -17 Z" /><glyph glyph-name="uni2000" unicode="&#x2000;" d="" /><glyph glyph-name="uni2001" unicode="&#x2001;" d="" /><glyph glyph-name="uni2002" unicode="&#x2002;" d="" /><glyph glyph-name="uni2003" unicode="&#x2003;" d="" /><glyph glyph-name="uni2004" unicode="&#x2004;" d="" /><glyph glyph-name="uni2005" unicode="&#x2005;" d="" /><glyph glyph-name="uni2006" unicode="&#x2006;" d="" /><glyph glyph-name="uni2007" unicode="&#x2007;" d="" /><glyph glyph-name="uni2008" unicode="&#x2008;" d="" /><glyph glyph-name="uni2009" unicode="&#x2009;" d="" /><glyph glyph-name="uni200A" unicode="&#x200a;" d="" /><glyph glyph-name="uni2010" unicode="&#x2010;" d="M950 574 l-794 0 l0 262 l794 0 l0 -262 Z" /><glyph glyph-name="uni2011" unicode="&#x2011;" d="M950 574 l-794 0 l0 262 l794 0 l0 -262 Z" /><glyph glyph-name="endash" unicode="&#x2013;" d="M156 574 l0 262 l698 0 l0 -262 l-698 0 Z" /><glyph glyph-name="emdash" unicode="&#x2014;" d="M156 574 l0 262 l1722 0 l0 -262 l-1722 0 Z" /><glyph glyph-name="quoteleft" unicode="&#x2018;" d="M537 1271 l0 -415 l-418 0 l0 362 q0 67 20.5 121.5 q20.5 54.5 51.5 90 q31 35.5 81 65.5 q50 30 95.5 47.5 q45.5 17.5 106.5 35.5 l62 -114 q-95 -34 -136 -76 q-41 -42 -41 -117 l178 0 Z" /><glyph glyph-name="quoteright" unicode="&#x2019;" d="M59 1163 l0 415 l418 0 l0 -362 q0 -67 -20.5 -121.5 q-20.5 -54.5 -51.5 -90 q-31 -35.5 -81 -65.5 q-50 -30 -95.5 -47.5 q-45.5 -17.5 -106.5 -35.5 l-62 114 q95 34 136 76 q41 42 41 117 l-178 0 Z" /><glyph glyph-name="quotesinglbase" unicode="&#x201a;" d="M140 0 l0 415 l418 0 l0 -362 q0 -67 -20.5 -121.5 q-20.5 -54.5 -51.5 -90 q-31 -35.5 -81 -65.5 q-50 -30 -95.5 -47.5 q-45.5 -17.5 -106.5 -35.5 l-62 114 q95 34 136 76 q41 42 41 117 l-178 0 Z" /><glyph glyph-name="quotedblleft" unicode="&#x201c;" d="M517 1271 l0 -415 l-418 0 l0 362 q0 67 20.5 121.5 q20.5 54.5 51.5 90 q31 35.5 81 65.5 q50 30 95.5 47.5 q45.5 17.5 106.5 35.5 l62 -114 q-95 -34 -136 -76 q-41 -42 -41 -117 l178 0 ZM1041 1271 l0 -415 l-418 0 l0 362 q0 67 20.5 121.5 q20.5 54.5 51.5 90 q31 35.5 81 65.5 q50 30 95.5 47.5 q45.5 17.5 106.5 35.5 l62 -114 q-95 -34 -136 -76 q-41 -42 -41 -117 l178 0 Z" /><glyph glyph-name="quotedblright" unicode="&#x201d;" d="M583 1163 l0 415 l418 0 l0 -362 q0 -67 -20.5 -121.5 q-20.5 -54.5 -51.5 -90 q-31 -35.5 -81 -65.5 q-50 -30 -95.5 -47.5 q-45.5 -17.5 -106.5 -35.5 l-62 114 q95 34 136 76 q41 42 41 117 l-178 0 ZM59 1163 l0 415 l418 0 l0 -362 q0 -67 -20.5 -121.5 q-20.5 -54.5 -51.5 -90 q-31 -35.5 -81 -65.5 q-50 -30 -95.5 -47.5 q-45.5 -17.5 -106.5 -35.5 l-62 114 q95 34 136 76 q41 42 41 117 l-178 0 Z" /><glyph glyph-name="quotedblbase" unicode="&#x201e;" d="M651 0 l0 415 l418 0 l0 -362 q0 -67 -20.5 -121.5 q-20.5 -54.5 -51.5 -90 q-31 -35.5 -81 -65.5 q-50 -30 -95.5 -47.5 q-45.5 -17.5 -106.5 -35.5 l-62 114 q95 34 136 76 q41 42 41 117 l-178 0 ZM127 0 l0 415 l418 0 l0 -362 q0 -67 -20.5 -121.5 q-20.5 -54.5 -51.5 -90 q-31 -35.5 -81 -65.5 q-50 -30 -95.5 -47.5 q-45.5 -17.5 -106.5 -35.5 l-62 114 q95 34 136 76 q41 42 41 117 l-178 0 Z" /><glyph glyph-name="bullet" unicode="&#x2022;" d="M799.5 365 q-90.5 -48 -192.5 -48 q-102 0 -192 48 q-90 48 -144.5 132 q-54.5 84 -54.5 183 q0 99 54.5 183 q54.5 84 144.5 132.5 q90 48.5 192 48.5 q102 0 192.5 -48.5 q90.5 -48.5 145.5 -132.5 q55 -84 55 -182.5 q0 -98.5 -55 -183 q-55 -84.5 -145.5 -132.5 Z" /><glyph glyph-name="ellipsis" unicode="&#x2026;" d="M153.5 55.5 q-55.5 55.5 -55.5 138.5 q0 83 55.5 138.5 q55.5 55.5 137.5 55.5 q82 0 139 -55.5 q57 -55.5 57 -138.5 q0 -83 -57 -138.5 q-57 -55.5 -139 -55.5 q-82 0 -137.5 55.5 ZM695.5 55.5 q-55.5 55.5 -55.5 138.5 q0 83 55.5 138.5 q55.5 55.5 137.5 55.5 q82 0 139 -55.5 q57 -55.5 57 -138.5 q0 -83 -57 -138.5 q-57 -55.5 -139 -55.5 q-82 0 -137.5 55.5 ZM1255.5 55.5 q-55.5 55.5 -55.5 138.5 q0 83 55.5 138.5 q55.5 55.5 137.5 55.5 q82 0 139 -55.5 q57 -55.5 57 -138.5 q0 -83 -57 -138.5 q-57 -55.5 -139 -55.5 q-82 0 -137.5 55.5 Z" /><glyph glyph-name="uni202F" unicode="&#x202f;" d="" /><glyph glyph-name="guilsinglleft" unicode="&#x2039;" d="M132 476 l0 236 l840 513 l1 -301 l-546 -330 l546 -330 l-1 -301 l-840 513 Z" /><glyph glyph-name="guilsinglright" unicode="&#x203a;" d="M1032 476 l-840 -513 l-1 301 l538 330 l-538 330 l1 301 l840 -513 l0 -236 Z" /><glyph glyph-name="uni205F" unicode="&#x205f;" d="" /><glyph glyph-name="Euro" unicode="&#x20ac;" d="M508 743 l340 0 l-1 -189 l-332 0 q34 -314 271 -314 q73 0 148 27 q75 27 114 54 l39 27 l70 -254 q-54 -52 -157 -91.5 q-103 -39.5 -245 -39.5 q-111 0 -204 33 q-93 33 -169 102 q-76 69 -123.5 185 q-47.5 116 -58.5 271 l-133 0 l1 189 l127 0 q2 75 5 112 l-151 0 l0 189 l178 0 q57 257 217.5 405.5 q160.5 148.5 425.5 149.5 l3 0 q64 0 125.5 -11 q61.5 -11 104 -27 q42.5 -16 75 -32 q32.5 -16 48.5 -27 l16 -11 l-83 -264 q-16 10 -44 25.5 q-28 15.5 -108.5 41 q-80.5 25.5 -153.5 25.5 q-105 0 -182 -71.5 q-77 -71.5 -119 -203.5 l361 0 l0 -189 l-399 0 q-4 -37 -6 -112 Z" /><glyph glyph-name="trademark" unicode="&#x2122;" d="M843 1330 l-256 0 l0 -844 l-235 0 l0 844 l-261 0 l0 162 l752 0 l0 -162 ZM1369 486 l-228 692 l0 -692 l-195 0 l0 1006 l277 0 l250 -746 l259 746 l278 0 l0 -1006 l-195 0 l0 692 l-227 -692 l-219 0 Z" /><glyph glyph-name="uniE000" unicode="&#xe000;" d="M0 1160 l1160 0 l0 -1160 l-1160 0 l0 1160 Z" /></font>
</defs>
</svg>
